<svg xmlns="http://www.w3.org/2000/svg" xmlns:xlink="http://www.w3.org/1999/xlink" viewBox="0 0 500 500"><defs><clipPath id="freepik--clip-path--inject-8"><path d="M323.46,199.64c-1.31,2-4.15,4.37-7.27,6.59A7.21,7.21,0,0,1,304.85,200l.1-1.89.11-2,.23-4.19c12.67,3.7,15.63-8.12,15.63-8.12l.43,2.67Z" style="fill:#fff;stroke:#263238;stroke-linecap:round;stroke-linejoin:round"></path></clipPath><clipPath id="freepik--clip-path-2--inject-8"><path d="M294.61,154.35c-2,1.87-6.77,12.45-3.09,28.87s20.85,18.81,28.87,4.6c6.33-11.23,8.6-22.74,4.76-30.36S306.91,143.09,294.61,154.35Z" style="fill:#fff;stroke:#263238;stroke-linecap:round;stroke-linejoin:round"></path></clipPath><clipPath id="freepik--clip-path-3--inject-8"><path d="M275.7,185.59l-18.5-10.92c-7.71-24.56-15.39-43.4-15.39-43.4a13.26,13.26,0,0,0,.9-3,21.27,21.27,0,0,0-1.44-12.2L238,106.46s-.08-6.19-1.45-6.55c-2.1-.54-1.16,5.61-1.16,5.61s1.16,7.39,1.16,7.48a25.23,25.23,0,0,1-2.93-10.42c-.22-2.28-.41-4.09-.51-5a2.64,2.64,0,0,0-.75-1.59c-.57-.55-1.34-.73-1.65,1.77a39.87,39.87,0,0,0,.3,9.41l1.61,6.63-.56-1.34L229.28,106s.76-5.5-.41-6.6-2.31,1.33-2,5.46,2.33,10.7,2.41,11l-2.8-4.21a11.18,11.18,0,0,0-.82-5.1c-.7-1.33-1.69,1-1.4,5.17.82,11.62,7.37,24.12,7.48,21.55l1,9.35A277.26,277.26,0,0,0,240.35,185h0s16.58,12.58,28.78,21.95C266.64,193.62,272.47,187.75,275.7,185.59Z" style="fill:#fff;stroke:#263238;stroke-linecap:round;stroke-linejoin:round"></path></clipPath><clipPath id="freepik--clip-path-4--inject-8"><path d="M436.49,144.25c-1.52-.52-3.27,3.16-3.27,3.16l-4,3.3a62.44,62.44,0,0,0,5.1-8.74c1.64-3.8,1.36-6.48-.1-5.82s-2.57,6.1-2.57,6.1l-5.73,6.49-.09-.06,3.82-5.93a40.56,40.56,0,0,0,3.4-8.79c.52-2.47-.27-2.55-1-2.21a2.58,2.58,0,0,0-1.23,1.25c-.4.85-1.18,2.49-2.13,4.58a35.94,35.94,0,0,1-6.51,9.65l-.22,0,3.07-5s4.29-8.81,2.12-8.82-3.59,6.22-3.59,6.22L417,147.8a21.47,21.47,0,0,0-5.38,11h0a13,13,0,0,0-.14,3.17S383,197,382.7,197.91l-16,2.09c-2.89.37-5.8.65-8.7.87-1.42,5.35-3,15.16,1.12,24.19,15.6-2.69,36.09-11.86,36.09-11.86L420.49,167S431,155,433.4,151.6,438.64,145,436.49,144.25Z" style="fill:#fff;stroke:#263238;stroke-linecap:round;stroke-linejoin:round"></path></clipPath><clipPath id="freepik--clip-path-5--inject-8"><path d="M360.89,200.63c-3.87.28-8.41,1-14.53.69-7.7-.38-15.31-.56-22.9-1.68-1.31,2-4.15,4.37-7.27,6.59A7.21,7.21,0,0,1,304.85,200l.1-1.89c-2.9-.91-12.93-1.87-12.93-1.87h0a18.44,18.44,0,0,0-13.52-10.26l-3.16-.55c-2.87,2.37-8.7,8.24-6.21,21.56,3.67,2.82,6.95,5.36,9.26,7.16,2.75,3.71,4.2,55.26,4.2,55.26l-4.2,24.86c19.21,8.91,47.9,6.17,58.32,4.33h0s-3.26-35.47-.89-46.24c.94-4.26,2.89-12.54,4.91-21a0,0,0,0,0,0,0c0-.12,8.29-2.89,18.37-6.23C357.4,219.93,359.19,209.89,360.89,200.63Z" style="fill:#fff;stroke:#263238;stroke-linecap:round;stroke-linejoin:round"></path></clipPath><clipPath id="freepik--clip-path-6--inject-8"><path d="M244.93,116.35c-.27-.76-.71-1.47-.93-2.26-.34-1.17-.31-2.64-.71-3.73a1,1,0,0,0-1.83,0,8.83,8.83,0,0,0-.19,5.72,3.41,3.41,0,0,1,.25,1.17,2,2,0,0,1-.73,1.5,9.54,9.54,0,0,0-2.07,1.86c-2.21,2.65-2.71,6.1-1.62,8l4.71,2.65C244.09,130.52,245.93,119.14,244.93,116.35Z" style="fill:#fff"></path></clipPath></defs><g id="freepik--background-simple--inject-8"><path d="M72.32,204.15c23.69-36.5,62.8-18.65,106.36-44.8S219.76,70.63,284.44,54.13C327,43.29,375.51,62.8,406.21,90.39c42,37.77,54.4,93.29,42.25,143.87-9.69,40.33-35,77.54-73.22,100.13-54.48,32.17-108.5,6.55-161.42,10.17s-91.76,2.66-119.8-32S48.64,240.66,72.32,204.15Z" style="fill:#3FB099"></path><path d="M72.32,204.15c23.69-36.5,62.8-18.65,106.36-44.8S219.76,70.63,284.44,54.13C327,43.29,375.51,62.8,406.21,90.39c42,37.77,54.4,93.29,42.25,143.87-9.69,40.33-35,77.54-73.22,100.13-54.48,32.17-108.5,6.55-161.42,10.17s-91.76,2.66-119.8-32S48.64,240.66,72.32,204.15Z" style="fill:#fff;opacity:0.699999988079071;isolation:isolate"></path></g><g id="freepik--Shadow--inject-8"><ellipse cx="247" cy="407.54" rx="199.12" ry="36.01" style="fill:#3FB099"></ellipse><ellipse cx="247" cy="407.54" rx="199.12" ry="36.01" style="fill:#fff;opacity:0.4"></ellipse></g><g id="freepik--hole-and-shovel--inject-8"><g id="freepik--Hole--inject-8"><path d="M393.93,296.77c.13,1.75-.17,12.69-.25,15.65-12.65,6.83-38.79,11.87-66,11.42-3.18-.06-6.44-.2-9.75-.42-4.73-.31-9.56-.79-14.36-1.4-5.47-.7-10.93-1.58-16.21-2.59-5.59-1.07-11-2.31-16-3.64a137.85,137.85,0,0,1-16.62-5.48l-.38-.16c-8.24-3.46-13.35-7.17-13.29-10.64a4.59,4.59,0,0,1,.1-1c-9.35-3.58-15.21-7.45-15.15-11,.17-10.66,28.41-16.68,68.62-16s102.06,9.77,101.89,20.45c0,1.64-1,3.27-2.65,4.85Z" style="fill:#999"></path><path d="M401.56,303.85c-.05,3-2.92,6-7.89,8.65.09-3,.39-13.9.26-15.65h0s0,0,0,0C398.78,299.05,401.61,301.4,401.56,303.85Z" style="fill:#5c5c5c"></path><path d="M246,305.82c.25.14-4.81-7.29-4.81-7.29S239.58,302.33,246,305.82Z" style="opacity:0.5"></path></g><g id="freepik--Shovel--inject-8"><path d="M401.15,328.94,405,312.17l28.42,7-2.22,12.94a25.87,25.87,0,0,1-14.92,19.22c-5,2.26-9.53,4.35-8.84,4.33s-1.39-4.2-3.71-8.38A25.85,25.85,0,0,1,401.15,328.94Z" style="fill:#bfbfbf;stroke:#263238;stroke-linecap:round;stroke-linejoin:round"></path><path d="M427,216.36c.23,1.19,2,16.44,8.13,17.88s17.28-9.16,18.44-13.08C455.52,214.61,425.48,208.36,427,216.36Zm21.64,5.55c-.79,2.66-8.36,9.86-12.53,8.88s-5.38-11.35-5.53-12.15C429.55,213.2,450,217.45,448.65,221.91Z" style="fill:#fff;stroke:#263238;stroke-linecap:round;stroke-linejoin:round"></path><path d="M434.06,212.59a3.74,3.74,0,0,0,0,3.36" style="fill:#fff;stroke:#263238;stroke-linecap:round;stroke-linejoin:round"></path><line x1="446.06" y1="214.8" x2="444.73" y2="218.04" style="fill:#fff;stroke:#263238;stroke-linecap:round;stroke-linejoin:round"></line><polygon points="416.72 315.04 433.74 228.59 439.61 229.54 421.42 316.19 416.72 315.04" style="fill:#fff;stroke:#263238;stroke-linecap:round;stroke-linejoin:round"></polygon><path d="M419.42,301l5,1.14s-3.67,16.94-4.17,18.84-3.33,3-3.33,3a5.13,5.13,0,0,1-1-4.51C416.63,316.69,419.42,301,419.42,301Z" style="fill:#263238;stroke:#263238;stroke-linecap:round;stroke-linejoin:round"></path><path d="M405.1,322.61c-6.09.92-11.76,5.65-11.12,11.41a7.9,7.9,0,0,0-8.43-.38,7.08,7.08,0,0,0-3.38,7.37c-4.24-.93-8.92,2.9-8.55,7s5.64,7,9.65,5.27c7.69,6.6,19.47,8.63,29.31,5.06l29.4-.49a44.29,44.29,0,0,0-11.79-8.14,7.57,7.57,0,0,0-.44-8.36,8.58,8.58,0,0,0-8.25-3C422.24,335.07,419.43,320.45,405.1,322.61Z" style="fill:#999"></path></g></g><g id="freepik--Character--inject-8"><line x1="257.2" y1="174.67" x2="256.82" y2="174.45" style="fill:none;stroke:#263238;stroke-linecap:round;stroke-linejoin:round"></line><path d="M336.71,298.55c-.82.48-18,10.39-37.26,7.13-16-2.7-21.06-11.46-21.06-11.46C297.61,303.13,326.29,300.39,336.71,298.55Z" style="fill:#fff;stroke:#263238;stroke-linecap:round;stroke-linejoin:round"></path><path d="M323.46,199.64c-1.31,2-4.15,4.37-7.27,6.59A7.21,7.21,0,0,1,304.85,200l.1-1.89c.48.15.77.3.78.44Z" style="fill:#fff;stroke:#263238;stroke-linecap:round;stroke-linejoin:round"></path><path d="M323.46,199.64c-1.31,2-4.15,4.37-7.27,6.59A7.21,7.21,0,0,1,304.85,200l.1-1.89.11-2,.23-4.19c12.67,3.7,15.63-8.12,15.63-8.12l.43,2.67Z" style="fill:#fff"></path><g style="clip-path:url(#freepik--clip-path--inject-8)"><path d="M316.75,194.47a22.24,22.24,0,0,0-3.9,4.64,1.46,1.46,0,0,1,2,.07,3.2,3.2,0,0,1,.86,2,9,9,0,0,1-1.15,5.73c1.64-1,3.41-1.84,5-2.93a9.44,9.44,0,0,0,3.73-4.33,5,5,0,0,0-1-5.37c-1.44-1.3-4.06-1.17-5.07.48.47-.5.94-1,1.4-1.49Z" style="fill:#3FB099"></path><g style="opacity:0.6000000000000001"><path d="M316.75,194.47a22.24,22.24,0,0,0-3.9,4.64,1.46,1.46,0,0,1,2,.07,3.2,3.2,0,0,1,.86,2,9,9,0,0,1-1.15,5.73c1.64-1,3.41-1.84,5-2.93a9.44,9.44,0,0,0,3.73-4.33,5,5,0,0,0-1-5.37c-1.44-1.3-4.06-1.17-5.07.48.47-.5.94-1,1.4-1.49Z" style="fill:#fff"></path></g></g><path d="M323.46,199.64c-1.31,2-4.15,4.37-7.27,6.59A7.21,7.21,0,0,1,304.85,200l.1-1.89.11-2,.23-4.19c12.67,3.7,15.63-8.12,15.63-8.12l.43,2.67Z" style="fill:none;stroke:#263238;stroke-linecap:round;stroke-linejoin:round"></path><path d="M319.38,189.44S311.12,201.56,299,194c0,0,5.29,4.63,10.18,5.46S319.38,189.44,319.38,189.44Z" style="fill:#263238;stroke:#263238;stroke-linecap:round;stroke-linejoin:round"></path><path d="M294.61,154.35c-2,1.87-6.77,12.45-3.09,28.87s20.85,18.81,28.87,4.6c6.33-11.23,8.6-22.74,4.76-30.36S306.91,143.09,294.61,154.35Z" style="fill:#fff"></path><g style="clip-path:url(#freepik--clip-path-2--inject-8)"><path d="M297,151.56a11.28,11.28,0,0,0-6.11,8.28c1.74-3.49,7.25-4.23,9.85-1.32,2.1-2.22,5.83-2.31,8.43-.73a11.36,11.36,0,0,1,4.8,7.5,34,34,0,0,1,.25,9.12q-.39,5.91-.76,11.81c-.27,4.27-.8,9.05-4.11,11.76a27.62,27.62,0,0,0,6-47.75,7.28,7.28,0,0,0-7.53-.46C304.84,151.37,300.08,150.07,297,151.56Z" style="fill:#3FB099"></path><path d="M297,151.56a11.28,11.28,0,0,0-6.11,8.28c1.74-3.49,7.25-4.23,9.85-1.32,2.1-2.22,5.83-2.31,8.43-.73a11.36,11.36,0,0,1,4.8,7.5,34,34,0,0,1,.25,9.12q-.39,5.91-.76,11.81c-.27,4.27-.8,9.05-4.11,11.76a27.62,27.62,0,0,0,6-47.75,7.28,7.28,0,0,0-7.53-.46C304.84,151.37,300.08,150.07,297,151.56Z" style="fill:#fff;opacity:0.6000000000000001"></path></g><path d="M294.61,154.35c-2,1.87-6.77,12.45-3.09,28.87s20.85,18.81,28.87,4.6c6.33-11.23,8.6-22.74,4.76-30.36S306.91,143.09,294.61,154.35Z" style="fill:none;stroke:#263238;stroke-linecap:round;stroke-linejoin:round"></path><line x1="383.15" y1="197.82" x2="382.7" y2="197.91" style="fill:none;stroke:#263238;stroke-linecap:round;stroke-linejoin:round"></line><path d="M293.08,369.91c1.19-2.12,3.75-5.59,5.15-5.69s7.9,4.74,7.9,4.74-2.47,6.85,2.53,5.15c3.43-1.17,15.13,7.18,19.48,12.06,3.35,3.76,3.4,8.79-5,8.73S293.08,369.91,293.08,369.91Z" style="fill:#fff;stroke:#263238;stroke-linecap:round;stroke-linejoin:round"></path><path d="M292,388.63c0-.1,13.84,6.25,22.28,6.73s12.84.29,13.11-3.95-8.75-10.93-22.28-15.32l1,1.74c-1.79-3.66-5.86-8-11.05-7.44s-7.15,6.13-7.15,6.13Z" style="fill:#263238;stroke:#263238;stroke-linecap:round;stroke-linejoin:round"></path><path d="M340.75,372.88c1.19-2.13,3.75-5.6,5.15-5.7s7.91,4.75,7.91,4.75-2.47,6.85,2.53,5.14c3.42-1.17,16,8.09,20.33,13,3.35,3.76,3.39,8.79-5,8.74S340.75,372.88,340.75,372.88Z" style="fill:#fff;stroke:#263238;stroke-linecap:round;stroke-linejoin:round"></path><path d="M338.79,389.89c.06-.1,15,3,20.8,10.17,5.32,6.56,15.39-.31,16-4.51s-9.58-11.48-22.68-17l.86,1.82c-1.47-3.8-5.15-8.45-10.37-8.37s-7.65,5.49-7.65,5.49Z" style="fill:#263238;stroke:#263238;stroke-linecap:round;stroke-linejoin:round"></path><path d="M355.71,390s1,7.81,3.88,10" style="fill:none;stroke:#999;stroke-linecap:round;stroke-linejoin:round"></path><path d="M273.58,302s-52.33,48-58.72,69.37-1.64,23.84-1.64,23.84,7.25,3.56,31.75,1.77a265.89,265.89,0,0,0,44.92-7.35s10.38-9.93.92-16.48l-43.3.63s37.12-39.23,45.56-41.24S292.18,307.3,273.58,302Z" style="fill:#263238;stroke:#263238;stroke-linecap:round;stroke-linejoin:round"></path><path d="M333.49,329.3c-4.52-15.21-23.95-19.79-35.25-8.65-16,15.75-41.11,42.21-45.41,56.63-6.39,21.4-1.64,23.83-1.64,23.83s7.25,3.57,31.75,1.78,53.76-11.28,53.76-11.28,10.38-9.93.92-16.48l-52.14,4.56S314.89,353.3,331,338.45C333.44,336.25,334.88,334,333.49,329.3Z" style="fill:#263238;stroke:#263238;stroke-linecap:round;stroke-linejoin:round"></path><path d="M331.36,338.26a3,3,0,0,0,.89-1c1.84-3.3.13-10.84.13-10.84-6.23-6.36-25.23-1.71-36.18,1.7-4.58,1.42-7.76,2.63-8,2.72h0l-21.11-22.67,11.32-13.92c19.22,8.91,47.9,6.17,58.32,4.33h0C349.5,325.32,333.82,336.69,331.36,338.26Z" style="fill:#263238;stroke:#263238;stroke-linecap:round;stroke-linejoin:round"></path><path d="M294.51,173.68c0,.92-.47,1.66-1.05,1.66s-1-.73-1.06-1.65.47-1.66,1.05-1.66S294.5,172.77,294.51,173.68Z" style="fill:#263238"></path><path d="M305.89,174.23c0,.92-.46,1.66-1,1.67s-1.06-.74-1.06-1.66.47-1.66,1-1.66S305.89,173.32,305.89,174.23Z" style="fill:#263238"></path><path d="M300.72,181c-2.16,1.8-5.68-.27-5.56-2.12s2-1.86,3.16-2.73-.53-4.61-.53-4.61" style="fill:none;stroke:#263238;stroke-linecap:round;stroke-linejoin:round"></path><path d="M303.86,191.32c-3.08,0-6.86-6.46-6.86-6.46a14,14,0,0,0,11.52-1.07S309.48,191.32,303.86,191.32Z" style="fill:#263238;stroke:#263238;stroke-linecap:round;stroke-linejoin:round"></path><path d="M302.3,165c6.39-.76,8.07,4,8.07,4" style="fill:none;stroke:#263238;stroke-linecap:round;stroke-linejoin:round"></path><path d="M290.67,167.15c.49-.75,2-3.28,5.57-1.6" style="fill:none;stroke:#263238;stroke-linecap:round;stroke-linejoin:round"></path><path d="M304.53,196.79c-.22-.77-.45-1.53-.67-2.29a15.38,15.38,0,0,0,3.81-.5,2.54,2.54,0,0,0,3.31,2.08C309.12,196.87,306.55,196.84,304.53,196.79Z" style="fill:#263238;stroke:#263238;stroke-linecap:round;stroke-linejoin:round"></path><path d="M275.7,185.59l-18.5-10.92c-7.71-24.56-15.39-43.4-15.39-43.4a13.26,13.26,0,0,0,.9-3,21.27,21.27,0,0,0-1.44-12.2L238,106.46s-.08-6.19-1.45-6.55c-2.1-.54-1.16,5.61-1.16,5.61s1.16,7.39,1.16,7.48a25.23,25.23,0,0,1-2.93-10.42c-.22-2.28-.41-4.09-.51-5a2.64,2.64,0,0,0-.75-1.59c-.57-.55-1.34-.73-1.65,1.77a39.87,39.87,0,0,0,.3,9.41l1.61,6.63-.56-1.34L229.28,106s.76-5.5-.41-6.6-2.31,1.33-2,5.46,2.33,10.7,2.41,11l-2.8-4.21a11.18,11.18,0,0,0-.82-5.1c-.7-1.33-1.69,1-1.4,5.17.82,11.62,7.37,24.12,7.48,21.55l1,9.35A277.26,277.26,0,0,0,240.35,185h0s16.58,12.58,28.78,21.95C266.64,193.62,272.47,187.75,275.7,185.59Z" style="fill:#fff"></path><g style="clip-path:url(#freepik--clip-path-3--inject-8)"><path d="M236.24,118.35c-.52,2.51-1.05,5-1.57,7.53a5.92,5.92,0,0,1,4.22-3.88c-2,6.69-.89,13.95,1.21,20.61s5.16,13,7.1,19.72a21.68,21.68,0,0,1,1.07,8.73,9.52,9.52,0,0,1-4.52,7.24c2.85-2.88,7.74-1.39,11.21.7a48.75,48.75,0,0,1,14.65,13.7l6.24-8c-9.2-6.58-15.47-16.6-19.53-27.16s-6.11-21.75-8.38-32.83c-1.88-9.13-4.4-19-11.86-24.59,2.06,1.54.55,8.09-.15,10a15.56,15.56,0,0,1-6.19,7.57C232,117.08,234,117.77,236.24,118.35Z" style="fill:#3FB099"></path><path d="M236.24,118.35c-.52,2.51-1.05,5-1.57,7.53a5.92,5.92,0,0,1,4.22-3.88c-2,6.69-.89,13.95,1.21,20.61s5.16,13,7.1,19.72a21.68,21.68,0,0,1,1.07,8.73,9.52,9.52,0,0,1-4.52,7.24c2.85-2.88,7.74-1.39,11.21.7a48.75,48.75,0,0,1,14.65,13.7l6.24-8c-9.2-6.58-15.47-16.6-19.53-27.16s-6.11-21.75-8.38-32.83c-1.88-9.13-4.4-19-11.86-24.59,2.06,1.54.55,8.09-.15,10a15.56,15.56,0,0,1-6.19,7.57C232,117.08,234,117.77,236.24,118.35Z" style="fill:#fff;opacity:0.6000000000000001"></path></g><path d="M275.7,185.59l-18.5-10.92c-7.71-24.56-15.39-43.4-15.39-43.4a13.26,13.26,0,0,0,.9-3,21.27,21.27,0,0,0-1.44-12.2L238,106.46s-.08-6.19-1.45-6.55c-2.1-.54-1.16,5.61-1.16,5.61s1.16,7.39,1.16,7.48a25.23,25.23,0,0,1-2.93-10.42c-.22-2.28-.41-4.09-.51-5a2.64,2.64,0,0,0-.75-1.59c-.57-.55-1.34-.73-1.65,1.77a39.87,39.87,0,0,0,.3,9.41l1.61,6.63-.56-1.34L229.28,106s.76-5.5-.41-6.6-2.31,1.33-2,5.46,2.33,10.7,2.41,11l-2.8-4.21a11.18,11.18,0,0,0-.82-5.1c-.7-1.33-1.69,1-1.4,5.17.82,11.62,7.37,24.12,7.48,21.55l1,9.35A277.26,277.26,0,0,0,240.35,185h0s16.58,12.58,28.78,21.95C266.64,193.62,272.47,187.75,275.7,185.59Z" style="fill:none;stroke:#263238;stroke-linecap:round;stroke-linejoin:round"></path><path d="M436.49,144.25c-1.52-.52-3.27,3.16-3.27,3.16l-4,3.3a62.44,62.44,0,0,0,5.1-8.74c1.64-3.8,1.36-6.48-.1-5.82s-2.57,6.1-2.57,6.1l-5.73,6.49-.09-.06,3.82-5.93a40.56,40.56,0,0,0,3.4-8.79c.52-2.47-.27-2.55-1-2.21a2.58,2.58,0,0,0-1.23,1.25c-.4.85-1.18,2.49-2.13,4.58a35.94,35.94,0,0,1-6.51,9.65l-.22,0,3.07-5s4.29-8.81,2.12-8.82-3.59,6.22-3.59,6.22L417,147.8a21.47,21.47,0,0,0-5.38,11h0a13,13,0,0,0-.14,3.17S383,197,382.7,197.91l-16,2.09c-2.89.37-5.8.65-8.7.87-1.42,5.35-3,15.16,1.12,24.19,15.6-2.69,36.09-11.86,36.09-11.86L420.49,167S431,155,433.4,151.6,438.64,145,436.49,144.25Z" style="fill:#fff"></path><g style="clip-path:url(#freepik--clip-path-4--inject-8)"><path d="M415.72,166.64,397.07,195.1c-2.34,3.56-5.5,7.55-9.75,7.26,1.22,2.84.38,6.27-1.51,8.72a17.81,17.81,0,0,1-7.53,5.24,36.36,36.36,0,0,1-21.15,1.94c-1.3,1.52-.17,4.07,1.64,4.91s3.93.51,5.9.15c10.86-2,22.41-4.28,30.31-12,4.1-4,6.86-9.11,9.55-14.15l9.65-18c2.54-4.76,8-11.54,8.55-16.82C421.93,162.75,415.72,165.86,415.72,166.64Z" style="fill:#3FB099"></path><path d="M415.72,166.64,397.07,195.1c-2.34,3.56-5.5,7.55-9.75,7.26,1.22,2.84.38,6.27-1.51,8.72a17.81,17.81,0,0,1-7.53,5.24,36.36,36.36,0,0,1-21.15,1.94c-1.3,1.52-.17,4.07,1.64,4.91s3.93.51,5.9.15c10.86-2,22.66-2.42,30.56-10.12,4.1-4,6.61-11,9.3-16l9.65-18c2.54-4.76,8-11.54,8.55-16.82C421.93,162.75,415.72,165.86,415.72,166.64Z" style="fill:#fff;opacity:0.6000000000000001"></path></g><path d="M436.49,144.25c-1.52-.52-3.27,3.16-3.27,3.16l-4,3.3a62.44,62.44,0,0,0,5.1-8.74c1.64-3.8,1.36-6.48-.1-5.82s-2.57,6.1-2.57,6.1l-5.73,6.49-.09-.06,3.82-5.93a40.56,40.56,0,0,0,3.4-8.79c.52-2.47-.27-2.55-1-2.21a2.58,2.58,0,0,0-1.23,1.25c-.4.85-1.18,2.49-2.13,4.58a35.94,35.94,0,0,1-6.51,9.65l-.22,0,3.07-5s4.29-8.81,2.12-8.82-3.59,6.22-3.59,6.22L417,147.8a21.47,21.47,0,0,0-5.38,11h0a13,13,0,0,0-.14,3.17S383,197,382.7,197.91l-16,2.09c-2.89.37-5.8.65-8.7.87-1.42,5.35-3,15.16,1.12,24.19,15.6-2.69,36.09-11.86,36.09-11.86L420.49,167S431,155,433.4,151.6,438.64,145,436.49,144.25Z" style="fill:none;stroke:#263238;stroke-linecap:round;stroke-linejoin:round"></path><path d="M360.89,200.63c-3.87.28-8.41,1-14.53.69-7.7-.38-15.31-.56-22.9-1.68-1.31,2-4.15,4.37-7.27,6.59A7.21,7.21,0,0,1,304.85,200l.1-1.89c-2.9-.91-12.93-1.87-12.93-1.87h0a18.44,18.44,0,0,0-13.52-10.26l-3.16-.55c-2.87,2.37-8.7,8.24-6.21,21.56,3.67,2.82,6.95,5.36,9.26,7.16,2.75,3.71,4.2,55.26,4.2,55.26l-4.2,24.86c19.21,8.91,47.9,6.17,58.32,4.33h0s-3.26-35.47-.89-46.24c.94-4.26,2.89-12.54,4.91-21a0,0,0,0,0,0,0c0-.12,8.29-2.89,18.37-6.23C357.4,219.93,359.19,209.89,360.89,200.63Z" style="fill:#fff"></path><g style="clip-path:url(#freepik--clip-path-5--inject-8)"><path d="M344.6,204.69a44.86,44.86,0,0,1,11-.42,7.55,7.55,0,0,0,3.81-.5,2.59,2.59,0,0,0,1.37-3.22l-20.94.17a7.49,7.49,0,0,0-3.52.6,5,5,0,0,0-2.34,4.07c-.28,3.41.42,4.54,3.09,2.74A19.87,19.87,0,0,1,344.6,204.69Z" style="fill:#3FB099"></path><path d="M344.6,204.69a44.86,44.86,0,0,1,11-.42,7.55,7.55,0,0,0,3.81-.5,2.59,2.59,0,0,0,1.37-3.22l-20.94.17a7.49,7.49,0,0,0-3.52.6,5,5,0,0,0-2.34,4.07c-.28,3.41.42,4.54,3.09,2.74A19.87,19.87,0,0,1,344.6,204.69Z" style="fill:#fff;opacity:0.6000000000000001"></path><path d="M350.24,225c-1,.51-2.13,1-3.07.49a2.2,2.2,0,0,1-1-2,6.35,6.35,0,0,1,.62-2.24A14.32,14.32,0,0,0,340,231.74a138.72,138.72,0,0,0,15.56-5,6.15,6.15,0,0,0,2.67-1.62c1.3-1.55.91-3.84-1.07-3.82S351.89,224.09,350.24,225Z" style="fill:#3FB099"></path><path d="M350.24,225c-1,.51-2.13,1-3.07.49a2.2,2.2,0,0,1-1-2,6.35,6.35,0,0,1,.62-2.24A14.32,14.32,0,0,0,340,231.74a138.72,138.72,0,0,0,15.56-5,6.15,6.15,0,0,0,2.67-1.62c1.3-1.55.91-3.84-1.07-3.82S351.89,224.09,350.24,225Z" style="fill:#fff;opacity:0.6000000000000001"></path><path d="M301.64,243.14a19.86,19.86,0,0,0,13.41,5.26l0,6.22a50.27,50.27,0,0,1-7.86-4.21,16.66,16.66,0,0,1-5.81-6.63C301.06,244.08,301.64,243.14,301.64,243.14Z" style="fill:#3FB099"></path><g style="opacity:0.6000000000000001"><path d="M301.64,243.14a19.86,19.86,0,0,0,13.41,5.26l0,6.22a50.27,50.27,0,0,1-7.86-4.21,16.66,16.66,0,0,1-5.81-6.63C301.06,244.08,301.64,243.14,301.64,243.14Z" style="fill:#fff"></path></g><path d="M295.33,220.29c-1.42,6.61-1.15,13.81,2.14,19.71a7.07,7.07,0,0,0-5.39-3c1.61,2.54,1.87,5.69,2.09,8.69q.57,8.18,1.16,16.36a17.86,17.86,0,0,1-6-9.89,43.84,43.84,0,0,1-.9-11.72c.24-9.23,1.3-18.58,4.4-27.32,1.42-4,3.26-8.95,6.14-12.18.86-1,2.78-2.64,3.71-.85.56,1.09-1,3.49-1.47,4.41C298.83,209.59,296.52,214.75,295.33,220.29Z" style="fill:#3FB099"></path><g style="opacity:0.6000000000000001"><path d="M295.33,220.29c-1.42,6.61-1.15,13.81,2.14,19.71a7.07,7.07,0,0,0-5.39-3c1.61,2.54,1.87,5.69,2.09,8.69q.57,8.18,1.16,16.36a17.86,17.86,0,0,1-6-9.89,43.84,43.84,0,0,1-.9-11.72c.24-9.23,1.3-18.58,4.4-27.32,1.42-4,3.26-8.95,6.14-12.18.86-1,2.78-2.64,3.71-.85.56,1.09-1,3.49-1.47,4.41C298.83,209.59,296.52,214.75,295.33,220.29Z" style="fill:#fff"></path></g><path d="M269.73,192.69a13.11,13.11,0,0,1,16.41,9.83c1.66-2.09,3.33-4.18,5-6.28a2.92,2.92,0,0,0,.74-1.34,2.86,2.86,0,0,0-.86-2.14,20,20,0,0,0-11.72-6.92C274.17,184.88,271.67,188.13,269.73,192.69Z" style="fill:#3FB099"></path><path d="M269.73,192.69a13.11,13.11,0,0,1,16.41,9.83c1.66-2.09,3.33-4.18,5-6.28a2.92,2.92,0,0,0,.74-1.34,2.86,2.86,0,0,0-.86-2.14,20,20,0,0,0-11.72-6.92C274.17,184.88,271.67,188.13,269.73,192.69Z" style="fill:#fff;opacity:0.6000000000000001"></path><path d="M340.05,223.26c-1.92.11-4.05-.93-4.54-2.79-.19-.76-.37-1.84-1.15-1.82s-.91.81-1,1.44a26.68,26.68,0,0,0,4.07,17.29c.2.31.47.66.85.66.56,0,.78-.71.86-1.26.85-5.83,3.72-10.06,5.91-15.27C343.4,222,341.93,223.14,340.05,223.26Z" style="fill:#3FB099"></path><path d="M340.05,223.26c-1.92.11-4.05-.93-4.54-2.79-.19-.76-.37-1.84-1.15-1.82s-.91.81-1,1.44a26.68,26.68,0,0,0,4.07,17.29c.2.31.47.66.85.66.56,0,.78-.71.86-1.26.85-5.83,3.72-10.06,5.91-15.27C343.4,222,341.93,223.14,340.05,223.26Z" style="fill:#fff;opacity:0.6000000000000001"></path><path d="M322.63,200.73s-9.91,6.15-8.08,6.18,5.78,1.25,5.8,4S322.63,200.73,322.63,200.73Z" style="fill:#3FB099"></path><path d="M322.63,200.73s-9.91,6.15-8.08,6.18,5.78,1.25,5.8,4S322.63,200.73,322.63,200.73Z" style="fill:#fff;opacity:0.4"></path></g><path d="M360.89,200.63c-3.87.28-8.41,1-14.53.69-7.7-.38-15.31-.56-22.9-1.68-1.31,2-4.15,4.37-7.27,6.59A7.21,7.21,0,0,1,304.85,200l.1-1.89c-2.9-.91-12.93-1.87-12.93-1.87h0a18.44,18.44,0,0,0-13.52-10.26l-3.16-.55c-2.87,2.37-8.7,8.24-6.21,21.56,3.67,2.82,6.95,5.36,9.26,7.16,2.75,3.71,4.2,55.26,4.2,55.26l-4.2,24.86c19.21,8.91,47.9,6.17,58.32,4.33h0s-3.26-35.47-.89-46.24c.94-4.26,2.89-12.54,4.91-21a0,0,0,0,0,0,0c0-.12,8.29-2.89,18.37-6.23C357.4,219.93,359.19,209.89,360.89,200.63Z" style="fill:none;stroke:#263238;stroke-linecap:round;stroke-linejoin:round"></path><path d="M416.41,148.83a3.27,3.27,0,0,1,.61-1,8.84,8.84,0,0,0,1.71-5.46,1,1,0,0,0-1.73-.59c-.74.9-1.2,2.29-1.9,3.29-.47.67-1.12,1.19-1.63,1.83-1.46,1.81-2.92,11.44-2,15.11l4.61-.48c2.66-1.23,3.62-6.87.48-11A1.94,1.94,0,0,1,416.41,148.83Z" style="fill:#fff"></path><path d="M411.51,162c-1-3.67.5-13.3,2-15.11.51-.64,1.16-1.16,1.63-1.83.7-1,1.16-2.39,1.9-3.29a1,1,0,0,1,1.73.59A8.84,8.84,0,0,1,417,147.8a3.27,3.27,0,0,0-.61,1,1.94,1.94,0,0,0,.19,1.65c3.14,4.15,2.18,9.79-.48,11" style="fill:none;stroke:#263238;stroke-linecap:round;stroke-linejoin:round"></path><path d="M419.9,147.31s3.58-1.53,9.65,4.29" style="fill:none;stroke:#263238;stroke-linecap:round;stroke-linejoin:round"></path><path d="M424.45,157.86c-1.6.65-3.39,1.1-4.55,2.38" style="fill:#fff;stroke:#263238;stroke-linecap:round;stroke-linejoin:round"></path><path d="M427.93,154.36a3.63,3.63,0,0,1-1.49,2.39" style="fill:#fff;stroke:#263238;stroke-linecap:round;stroke-linejoin:round"></path><polygon points="314.15 300.28 294.39 300.28 294.39 261.34 314.15 264.08 314.15 300.28" style="fill:#3FB099;stroke:#263238;stroke-linecap:round;stroke-linejoin:round"></polygon><path d="M279.28,221.75c-2.65,9.24-3,13.37-5.88,28.35-.9,4.71-2.2,9.34-2.72,14.12-.37,3.36-.4,6.75-.44,10.13l.91,10.11c-.91,8.14,4.43,10.33,8.32,11.22,10.69,2.44,13.49,3,19,4.6.19-10.7-.66-15.85-1.08-28.38-.12-3.54-.33-9.22-2.84-11.86-.65-.69-3.6-4.6-4.11-5.45a4,4,0,0,1-.48-2.08c.35-21.81,2.93-42.76,12.53-54.69.64-.79-9.52-2.85-10.62-2.42-2.13.84-2.63,2.44-3.69,4.53A125.14,125.14,0,0,0,279.28,221.75Z" style="fill:#3FB099;stroke:#263238;stroke-linecap:round;stroke-linejoin:round"></path><path d="M339,239c6.28,7.34,5,26,4.75,30.86a83.75,83.75,0,0,1-1.34,10.2l-2.63,15.18c-.86,5-5.94,7.24-11.52,7.32-8,.12-17.68,1.56-25.44-1.6q2.85-16.29,5.67-32.33c.61-3.52,1.71-7.6,5.34-8.86,1.05-.37.26.35,1.05-.37.55-.51,2-37.57,8.94-60.72.3-1,6-.94,7.19-.28,2.38,1.26,3.35,2.73,3.55,5.1C336.18,221.78,334.05,233.13,339,239Z" style="fill:#3FB099;stroke:#263238;stroke-linecap:round;stroke-linejoin:round"></path><path d="M312.21,271.05c.39,1.4-2.75,25.56-2.75,25.56s12.51,3.27,21.59,1.83a6.64,6.64,0,0,0,5.66-6.53V271.83Z" style="fill:#3FB099;stroke:#263238;stroke-linecap:round;stroke-linejoin:round"></path><path d="M312.21,271.05s5.65,6.76,11,6.94,13.46-6.16,13.46-6.16" style="fill:none;stroke:#263238;stroke-linecap:round;stroke-linejoin:round"></path><path d="M320.51,277.39s-3.66,13.85-1.66,20.76" style="fill:none;stroke:#263238;stroke-linecap:round;stroke-linejoin:round"></path><path d="M326.18,277.57s3.14,11,1.47,20.72" style="fill:none;stroke:#263238;stroke-linecap:round;stroke-linejoin:round"></path><path d="M271.18,266.92c.17.84-.22,7.59-2.15,14.39s2.46,12.34,7.84,13c5.13.65,11.15.69,15-1.59l2.74-24.05Z" style="fill:#3FB099;stroke:#263238;stroke-linecap:round;stroke-linejoin:round"></path><path d="M271.18,266.92s5,7.05,10.14,7.44,13.33-5.68,13.33-5.68" style="fill:none;stroke:#263238;stroke-linecap:round;stroke-linejoin:round"></path><path d="M278.74,273.65s-4.36,13.66-2.9,20.54" style="fill:none;stroke:#263238;stroke-linecap:round;stroke-linejoin:round"></path><path d="M284.15,274.06s2.23,11.11,0,20.6" style="fill:none;stroke:#263238;stroke-linecap:round;stroke-linejoin:round"></path><path d="M306.33,153.48c10.39.88,12.54,14.87,12.5,18.51-.18,16.2-5.95,17.46-4.68,21.27.61,1.84,6.18,5.06,8.11,4.85.58,2.2,1.34,5.87,3.1,7.68,6.44,6.57,10.65-6.56,15-5.27,0,0-6.94-21.6-6.69-28.57s-.44-14.39-4.63-20a18.74,18.74,0,0,0-13.83-7.32c-5.13-.25-10.09,1.61-14.89,3.45a22.5,22.5,0,0,0-7,3.68,19.44,19.44,0,0,0-4.16,5.84,23.76,23.76,0,0,0-2.52,6.57c-.95,5.07.92,10.41-.33,15.42-.49,2-1.44,3.81-1.62,5.81s.77,4.36,2.73,4.82a3.5,3.5,0,0,1,1.59.49,2.64,2.64,0,0,1,.61,1.38A7.7,7.7,0,0,0,300.88,197a4.89,4.89,0,0,0,3.86,4.76c0-.93.21-3.67.21-3.67-7.95-4.06-8.47-5.83-9.22-6.54a10.84,10.84,0,0,1-2.46-3.85c-1.75-4.45-2.47-8.22-2.79-21.56-.06-2.18,2.07-9.79,3.79-11.14s4.54.43,5.85,2.2C300.27,156.16,302.7,153.18,306.33,153.48Z" style="fill:#263238;stroke:#263238;stroke-linecap:round;stroke-linejoin:round"></path><path d="M320,155.66a17.07,17.07,0,0,1,2,4,37.34,37.34,0,0,1,.34,21.21c-1.94,6.93-4.66,8.55-4.32,11.45.27,2.26,6.18,2.56,8.94,1.21a6.26,6.26,0,0,0,0,8.07c2,2.19,5.19,3.24,8-.86" style="fill:none;stroke:#999;stroke-linecap:round;stroke-linejoin:round"></path><path d="M317.3,152.51a16.21,16.21,0,0,1,1.36,1.39" style="fill:none;stroke:#999;stroke-linecap:round;stroke-linejoin:round"></path><path d="M306,149a12.12,12.12,0,0,1,9.72,2.25" style="fill:none;stroke:#999;stroke-linecap:round;stroke-linejoin:round"></path><path d="M330.48,178.33a26.91,26.91,0,0,0,2.15,7.89" style="fill:none;stroke:#999;stroke-linecap:round;stroke-linejoin:round"></path><path d="M328.64,159.65c1.11,5,1.07,10.47,1.51,15.69" style="fill:none;stroke:#999;stroke-linecap:round;stroke-linejoin:round"></path><path d="M327.14,155.67a20.43,20.43,0,0,1,.88,2.19" style="fill:none;stroke:#999;stroke-linecap:round;stroke-linejoin:round"></path><path d="M290.78,155.34a4,4,0,0,1,4.55-1.2,11.87,11.87,0,0,1,4.12,2.86" style="fill:none;stroke:#999;stroke-linecap:round;stroke-linejoin:round"></path><path d="M346.32,221.29a21.48,21.48,0,0,0-6,11.23" style="fill:none;stroke:#263238;stroke-linecap:round;stroke-linejoin:round"></path><path d="M275.47,203.78a29.39,29.39,0,0,1,3.34,10.92" style="fill:none;stroke:#263238;stroke-linecap:round;stroke-linejoin:round"></path><path d="M295,242.91l2.61,5.49c2.55,5.4,5.34,11.06,10.33,14.34" style="fill:none;stroke:#263238;stroke-linecap:round;stroke-linejoin:round"></path><path d="M293.11,238.83l1.19,2.52" style="fill:none;stroke:#263238;stroke-linecap:round;stroke-linejoin:round"></path><path d="M305.25,248.49a32.82,32.82,0,0,0,9.44,6" style="fill:none;stroke:#263238;stroke-linecap:round;stroke-linejoin:round"></path><path d="M300.65,243.36a33,33,0,0,0,3,3.53" style="fill:none;stroke:#263238;stroke-linecap:round;stroke-linejoin:round"></path><path d="M382.86,198.38a9.93,9.93,0,0,1,5.84,6.48" style="fill:#fff;stroke:#263238;stroke-linecap:round;stroke-linejoin:round"></path><path d="M247.88,174.38a22.8,22.8,0,0,1,14.93,3.53l-.95-.41" style="fill:#fff;stroke:#263238;stroke-linecap:round;stroke-linejoin:round"></path><path d="M244.93,116.35c-.27-.76-.71-1.47-.93-2.26-.34-1.17-.31-2.64-.71-3.73a1,1,0,0,0-1.83,0,8.83,8.83,0,0,0-.19,5.72,3.41,3.41,0,0,1,.25,1.17,2,2,0,0,1-.73,1.5,9.54,9.54,0,0,0-2.07,1.86c-2.21,2.65-2.71,6.1-1.62,8l4.71,2.65C244.09,130.52,245.93,119.14,244.93,116.35Z" style="fill:#fff"></path><g style="clip-path:url(#freepik--clip-path-6--inject-8)"><path d="M242.3,118.13a14.38,14.38,0,0,1-2.37,7.61,12,12,0,0,0-2,3.1c-.37,1.18.07,2.74,1.27,3s2.23-.71,2.91-1.69c3.9-5.59,4-13.3,1.15-19.5-.23-.53-.8-1.31-1.43-.76-.41.36,0,1.64.07,2.06A32.27,32.27,0,0,1,242.3,118.13Z" style="fill:#3FB099"></path><path d="M242.3,118.13a14.38,14.38,0,0,1-2.37,7.61,12,12,0,0,0-2,3.1c-.37,1.18.07,2.74,1.27,3s2.23-.71,2.91-1.69c3.9-5.59,4-13.3,1.15-19.5-.23-.53-.8-1.31-1.43-.76-.41.36,0,1.64.07,2.06A32.27,32.27,0,0,1,242.3,118.13Z" style="fill:#fff;opacity:0.6000000000000001"></path></g><path d="M237.1,128.62c-1.09-1.92-.59-5.37,1.62-8a9.54,9.54,0,0,1,2.07-1.86,2,2,0,0,0,.73-1.5,3.41,3.41,0,0,0-.25-1.17,8.83,8.83,0,0,1,.19-5.72,1,1,0,0,1,1.83,0c.4,1.09.37,2.56.71,3.73.22.79.66,1.5.93,2.26,1,2.79-.84,14.17-3.12,14.92" style="fill:none;stroke:#263238;stroke-linecap:round;stroke-linejoin:round"></path><path d="M238,114.47a22.09,22.09,0,0,0-9.35,2.27" style="fill:#fff;stroke:#263238;stroke-linecap:round;stroke-linejoin:round"></path><path d="M306.71,315.5a21.29,21.29,0,0,0-8.47,5.15c-9.25,9.13-21.6,21.86-31.17,33.76" style="fill:none;stroke:#999;stroke-linecap:round;stroke-linejoin:round"></path><path d="M314.15,314.5a21.19,21.19,0,0,0-3.73.17" style="fill:none;stroke:#999;stroke-linecap:round;stroke-linejoin:round"></path><path d="M295.5,323.41a33.54,33.54,0,0,0-10.36-15.05" style="fill:none;stroke:#999;stroke-linecap:round;stroke-linejoin:round"></path></g><g id="freepik--Treasure--inject-8"><path d="M79.8,353.79c1.75-.91,13.44-80.2,13.44-80.2s126.22-23.37,128-23.47l-9.35,73.66Z" style="fill:#3FB099;stroke:#263238;stroke-linecap:round;stroke-linejoin:round;strokeWidth:0.955680787563324px"></path><path d="M211.92,323.42c0,.24,0,.36,0,.36l-132.07,30c1.75-.91,13.44-80.2,13.44-80.2s126.22-23.37,128-23.47a.15.15,0,0,1,.12.18C219.17,267.14,212.72,318.09,211.92,323.42Z" style="stroke:#263238;stroke-linecap:round;stroke-linejoin:round;strokeWidth:0.955680787563324px;opacity:0.5"></path><path d="M93.24,273.59S68.69,288.6,64,306.13,79.8,353.79,79.8,353.79s3.89-14.61,7.32-40.1C88.47,303.64,93.24,273.59,93.24,273.59Z" style="fill:#263238;stroke:#263238;stroke-linecap:round;stroke-linejoin:round;strokeWidth:0.955680787563324px"></path><path d="M205.63,325c-2.63-3.82-16.8-22.8-10.47-37.53,11.33-26.39,19.92-27.57,23.79-34.27C219,253.22,206.43,319.69,205.63,325Z" style="opacity:0.5"></path><polygon points="79.8 353.79 86.75 352.21 98.89 280.22 215.37 257.92 205.63 325.02 211.87 323.78 221.34 250.3 93.24 273.59 79.8 353.79" style="fill:#3FB099;stroke:#263238;stroke-linecap:round;stroke-linejoin:round;strokeWidth:0.955680787563324px"></polygon><path d="M79.8,353.79l4.09,46.42H79.8l2,10.46s46.85,31.75,50.87,31.63c8.51-.24,123-36.63,123-36.63l1.16-8.18-2.92-1.56V353.79l-42.07-30Z" style="fill:#3FB099;stroke:#263238;stroke-linecap:round;stroke-linejoin:round;strokeWidth:0.955680787563324px"></path><polygon points="253.94 353.79 253.94 395.93 132.11 431.37 83.88 400.22 79.8 353.79 211.87 323.78 253.94 353.79" style="opacity:0.5"></polygon><polygon points="79.8 353.79 129.47 383.77 253.94 353.79 211.87 323.78 79.8 353.79" style="opacity:0.2"></polygon><polygon points="93.24 354.7 130.64 376.84 241.67 349.95 210.7 327.75 93.24 354.7" style="opacity:0.5"></polygon><line x1="129.47" y1="383.77" x2="132.71" y2="442.3" style="fill:none;stroke:#263238;stroke-linecap:round;stroke-linejoin:round;strokeWidth:0.955680787563324px"></line><line x1="83.89" y1="404.31" x2="132.24" y2="435.38" style="fill:none;stroke:#263238;stroke-linecap:round;stroke-linejoin:round;strokeWidth:0.955680787563324px"></line><line x1="253.94" y1="399.24" x2="132.71" y2="435.38" style="fill:none;stroke:#263238;stroke-linecap:round;stroke-linejoin:round;strokeWidth:0.955680787563324px"></line><path d="M204.13,393.48c-8.51,3.61-17.2-.7-17.2-.7v-7a26.29,26.29,0,0,0,14.42,1.56c3.56-.54,4.27-2,4-3.35C207.41,391.72,204.13,393.48,204.13,393.48Z" style="fill:#fff;opacity:0.4"></path><path d="M201.35,387.36a26.29,26.29,0,0,1-14.42-1.56l.06,0,16.31-5a7.56,7.56,0,0,1,2,3.26s0,0,0,0C205.62,385.4,204.91,386.82,201.35,387.36Z" style="fill:#fff;opacity:0.6000000000000001"></path><path d="M204.13,393.48c-8.51,3.61-17.2-.7-17.2-.7v-7l.06,0,16.31-5a7.56,7.56,0,0,1,2,3.26s0,0,0,0C207.41,391.72,204.13,393.48,204.13,393.48Z" style="fill:none;stroke:#263238;stroke-linecap:round;stroke-linejoin:round;strokeWidth:0.955680787563324px"></path><path d="M92.92,354.7l37.4,22.14,111-26.88-25.68-19.35h0a8.3,8.3,0,0,0-2.28-4.33,14.81,14.81,0,0,0-5.46-3.68l-1-.17s-10.29-23.51-31.06-30-92.7,49.17-82.91,62.28" style="fill:#fff;stroke:#3FB099;stroke-linecap:round;stroke-linejoin:round;strokeWidth:0.955680787563324px"></path><path d="M124.41,310.56c.29.82-.52,1.59-1.2,2.13s-1.41,1.45-.95,2.2a2.87,2.87,0,0,0-3.15.16,2.82,2.82,0,0,0-1,3c.52,1.6,2.34,2.34,4,2.72a53,53,0,0,0,11,1c.53,0,1.22-.1,1.32-.62a.88.88,0,0,0-.63-.88c-.36-.15-.77-.17-1.14-.31a1.8,1.8,0,0,1-.69-2.67,1.5,1.5,0,0,1,.87-1.9,4.29,4.29,0,0,1,2.31-.15,1.08,1.08,0,0,0-.27-1.33,1.58,1.58,0,0,0,.37-1.79C134.07,309.4,126.71,310.21,124.41,310.56Z" style="fill:#fff"></path><path d="M133,313.86a42,42,0,0,1-7.2-1.29" style="fill:#fff;stroke:#3FB099;stroke-linecap:round;stroke-linejoin:round;strokeWidth:0.716760590672493px"></path><path d="M130.79,317a14.15,14.15,0,0,1-5.47-.8" style="fill:#fff;stroke:#3FB099;stroke-linecap:round;stroke-linejoin:round;strokeWidth:0.716760590672493px"></path><path d="M130.76,319.83a37.81,37.81,0,0,1-10.82-1.66" style="fill:#fff;stroke:#3FB099;stroke-linecap:round;stroke-linejoin:round;strokeWidth:0.716760590672493px"></path><path d="M92.73,343.94c.29.82-.51,1.59-1.2,2.13s-1.4,1.45-.94,2.2a2.88,2.88,0,0,0-3.16.16,2.79,2.79,0,0,0-.94,3c.51,1.6,2.33,2.34,4,2.72a53.77,53.77,0,0,0,11.05,1c.53,0,1.23-.1,1.33-.62a.9.9,0,0,0-.64-.89c-.36-.14-.77-.16-1.13-.3a1.8,1.8,0,0,1-.7-2.67,1.51,1.51,0,0,1,.88-1.9,4.37,4.37,0,0,1,2.3-.16,1,1,0,0,0-.26-1.32,1.59,1.59,0,0,0,.36-1.8C102.39,342.77,95,343.58,92.73,343.94Z" style="fill:#fff"></path><path d="M101.31,347.23a40.84,40.84,0,0,1-7.2-1.28" style="fill:none;stroke:#3FB099;stroke-linecap:round;stroke-linejoin:round;strokeWidth:0.716760590672493px"></path><path d="M99.11,350.35a14.07,14.07,0,0,1-5.46-.79" style="fill:none;stroke:#3FB099;stroke-linecap:round;stroke-linejoin:round;strokeWidth:0.716760590672493px"></path><path d="M99.08,353.21a37.4,37.4,0,0,1-10.81-1.67" style="fill:none;stroke:#3FB099;stroke-linecap:round;stroke-linejoin:round;strokeWidth:0.716760590672493px"></path><path d="M138.21,301.47c.21.85-.68,1.53-1.42,2s-1.55,1.29-1.17,2.08a2.88,2.88,0,0,0-3.16-.17,2.81,2.81,0,0,0-1.26,2.89c.35,1.65,2.08,2.58,3.67,3.13a54.17,54.17,0,0,0,10.88,2.15c.53.06,1.23,0,1.38-.48a.88.88,0,0,0-.53-.95c-.35-.18-.75-.24-1.1-.42a1.8,1.8,0,0,1-.4-2.73,1.51,1.51,0,0,1,1.07-1.8,4.33,4.33,0,0,1,2.31.09,1,1,0,0,0-.13-1.34,1.57,1.57,0,0,0,.55-1.75C147.94,301.34,140.54,301.37,138.21,301.47Z" style="fill:#fff"></path><path d="M146.39,305.66a39.74,39.74,0,0,1-7-2" style="fill:none;stroke:#3FB099;stroke-linecap:round;stroke-linejoin:round;strokeWidth:0.716760590672493px"></path><path d="M143.88,308.53a13.84,13.84,0,0,1-5.36-1.37" style="fill:none;stroke:#3FB099;stroke-linecap:round;stroke-linejoin:round;strokeWidth:0.716760590672493px"></path><path d="M143.54,311.37A37.22,37.22,0,0,1,133,308.56" style="fill:none;stroke:#3FB099;stroke-linecap:round;stroke-linejoin:round;strokeWidth:0.716760590672493px"></path><path d="M197.4,304.47c-.09.82.81,1.35,1.56,1.71s1.6,1,1.33,1.81a2.71,2.71,0,0,1,2.94-.52,2.64,2.64,0,0,1,1.51,2.56c-.14,1.58-1.65,2.65-3.08,3.34a50.21,50.21,0,0,1-9.93,3.26c-.48.12-1.14.17-1.34-.29a.83.83,0,0,1,.39-.95c.3-.21.67-.31,1-.52a1.69,1.69,0,0,0,.07-2.6,1.41,1.41,0,0,0-1.2-1.56,4.22,4.22,0,0,0-2.15.35,1,1,0,0,1,0-1.27,1.51,1.51,0,0,1-.72-1.57C188.29,305.46,195.22,304.64,197.4,304.47Z" style="fill:#fff"></path><path d="M190.24,309.33a37.62,37.62,0,0,0,6.33-2.72" style="fill:none;stroke:#3FB099;stroke-linecap:round;stroke-linejoin:round;strokeWidth:0.716760590672493px"></path><path d="M192.91,311.72a13.05,13.05,0,0,0,4.85-1.9" style="fill:none;stroke:#3FB099;stroke-linecap:round;stroke-linejoin:round;strokeWidth:0.716760590672493px"></path><path d="M193.55,314.34a35.44,35.44,0,0,0,9.57-3.83" style="fill:none;stroke:#3FB099;stroke-linecap:round;stroke-linejoin:round;strokeWidth:0.716760590672493px"></path><path d="M219.41,330.83c0,.49.5.82,1,1s1,.63.81,1.11a1.64,1.64,0,0,1,1.79-.32,1.62,1.62,0,0,1,.92,1.56c-.09,1-1,1.61-1.87,2a30.38,30.38,0,0,1-6,2c-.3.08-.7.11-.82-.17a.51.51,0,0,1,.24-.58c.18-.13.41-.19.59-.32a1,1,0,0,0,.05-1.58.88.88,0,0,0-.74-.95,2.51,2.51,0,0,0-1.31.22.62.62,0,0,1,0-.78.92.92,0,0,1-.44-.95C213.87,331.43,218.08,330.93,219.41,330.83Z" style="fill:#fff"></path><path d="M215.05,333.78a23.84,23.84,0,0,0,3.86-1.65" style="fill:none;stroke:#3FB099;stroke-linecap:round;stroke-linejoin:round;strokeWidth:0.716760590672493px"></path><path d="M216.68,335.24a8,8,0,0,0,2.95-1.16" style="fill:none;stroke:#3FB099;stroke-linecap:round;stroke-linejoin:round;strokeWidth:0.716760590672493px"></path><path d="M217.07,336.83a21.75,21.75,0,0,0,5.82-2.33" style="fill:none;stroke:#3FB099;stroke-linecap:round;stroke-linejoin:round;strokeWidth:0.716760590672493px"></path><path d="M132.67,319.5a3.53,3.53,0,0,0,1.84,2.42,6.55,6.55,0,0,0,3,.7,7,7,0,0,0,4.72-1.36" style="fill:none;stroke:#3FB099;stroke-linecap:round;stroke-linejoin:round;strokeWidth:0.716760590672493px"></path><path d="M146.52,322.47a4.69,4.69,0,0,0,6,.76" style="fill:none;stroke:#3FB099;stroke-linecap:round;stroke-linejoin:round;strokeWidth:0.716760590672493px"></path><path d="M141.62,315.8a4.34,4.34,0,0,0-1.26.84,1.7,1.7,0,0,0-.49,1.39c.15,1,1.33,1.41,2.32,1.57a24.34,24.34,0,0,0,8-.19,3.32,3.32,0,0,0,1.19-.38,1.23,1.23,0,0,0,.65-1,.78.78,0,0,0-.8-.78" style="fill:none;stroke:#3FB099;stroke-linecap:round;stroke-linejoin:round;strokeWidth:0.716760590672493px"></path><path d="M153.56,322.33a12.78,12.78,0,0,0,13.75-.19.51.51,0,0,0,.26-.32" style="fill:none;stroke:#3FB099;stroke-linecap:round;stroke-linejoin:round;strokeWidth:0.716760590672493px"></path><path d="M177.9,319.81A18.09,18.09,0,0,0,191,317.87" style="fill:none;stroke:#3FB099;stroke-linecap:round;stroke-linejoin:round;strokeWidth:0.716760590672493px"></path><path d="M197.82,314.91a9.68,9.68,0,0,0,5.25-2.18" style="fill:none;stroke:#3FB099;stroke-linecap:round;stroke-linejoin:round;strokeWidth:0.716760590672493px"></path><path d="M157,296.21a1.73,1.73,0,1,1-1.72-1.72A1.72,1.72,0,0,1,157,296.21Z" style="fill:#fff;stroke:#3FB099;stroke-linecap:round;stroke-linejoin:round;strokeWidth:0.716760590672493px"></path><path d="M158.74,297.93a1.73,1.73,0,1,1-1.73-1.72A1.73,1.73,0,0,1,158.74,297.93Z" style="fill:#fff;stroke:#3FB099;stroke-linecap:round;stroke-linejoin:round;strokeWidth:0.716760590672493px"></path><path d="M160.92,299.1a1.73,1.73,0,1,1-1.73-1.72A1.72,1.72,0,0,1,160.92,299.1Z" style="fill:#fff;stroke:#3FB099;stroke-linecap:round;stroke-linejoin:round;strokeWidth:0.716760590672493px"></path><path d="M162.64,299.66a1.73,1.73,0,1,1-1.72-1.73A1.72,1.72,0,0,1,162.64,299.66Z" style="fill:#fff;stroke:#3FB099;stroke-linecap:round;stroke-linejoin:round;strokeWidth:0.716760590672493px"></path><path d="M165,300.19a1.72,1.72,0,1,1-1.72-1.72A1.73,1.73,0,0,1,165,300.19Z" style="fill:#fff;stroke:#3FB099;stroke-linecap:round;stroke-linejoin:round;strokeWidth:0.716760590672493px"></path><path d="M167.57,300.19a1.73,1.73,0,1,1-1.73-1.72A1.74,1.74,0,0,1,167.57,300.19Z" style="fill:#fff;stroke:#3FB099;stroke-linecap:round;stroke-linejoin:round;strokeWidth:0.716760590672493px"></path><circle cx="168.33" cy="300.19" r="1.72" style="fill:#fff;stroke:#3FB099;stroke-linecap:round;stroke-linejoin:round;strokeWidth:0.716760590672493px"></circle><circle cx="170.69" cy="300.19" r="1.72" style="fill:#fff;stroke:#3FB099;stroke-linecap:round;stroke-linejoin:round;strokeWidth:0.716760590672493px"></circle><path d="M185.3,296.75a1.72,1.72,0,1,1-1.72-1.73A1.72,1.72,0,0,1,185.3,296.75Z" style="fill:#fff;stroke:#3FB099;stroke-linecap:round;stroke-linejoin:round;strokeWidth:0.716760590672493px"></path><path d="M183.58,297.66a1.73,1.73,0,1,1-1.72-1.72A1.72,1.72,0,0,1,183.58,297.66Z" style="fill:#fff;stroke:#3FB099;stroke-linecap:round;stroke-linejoin:round;strokeWidth:0.716760590672493px"></path><circle cx="179.85" cy="298.79" r="1.72" style="fill:#fff;stroke:#3FB099;stroke-linecap:round;stroke-linejoin:round;strokeWidth:0.716760590672493px"></circle><circle cx="177.63" cy="299.66" r="1.72" style="fill:#fff;stroke:#3FB099;stroke-linecap:round;stroke-linejoin:round;strokeWidth:0.716760590672493px"></circle><circle cx="175.57" cy="300.19" r="1.72" style="fill:#fff;stroke:#3FB099;stroke-linecap:round;stroke-linejoin:round;strokeWidth:0.716760590672493px"></circle><circle cx="173.08" cy="300.19" r="1.72" style="fill:#fff;stroke:#3FB099;stroke-linecap:round;stroke-linejoin:round;strokeWidth:0.716760590672493px"></circle><circle cx="173.08" cy="300.19" r="1.72" style="fill:#fff;stroke:#3FB099;stroke-linecap:round;stroke-linejoin:round;strokeWidth:0.716760590672493px"></circle><line x1="155.75" y1="306.85" x2="155.33" y2="305.89" style="fill:none;stroke:#3FB099;stroke-linecap:round;stroke-linejoin:round;strokeWidth:0.716760590672493px"></line><path d="M152.52,306.46c0,.14-.19.94-.33.94" style="fill:none;stroke:#3FB099;stroke-linecap:round;stroke-linejoin:round;strokeWidth:0.716760590672493px"></path><line x1="152.35" y1="305.49" x2="151.14" y2="306.3" style="fill:none;stroke:#3FB099;stroke-linecap:round;stroke-linejoin:round;strokeWidth:0.716760590672493px"></line><path d="M158.34,303.76l-2-1.2c-.25-.16-2.79,1.18-2.79,1.18s-2.85,2.57-2.42,2.56l.72,1.74s3.43-.59,4-.64,2.72-2.56,2.72-2.56" style="fill:none;stroke:#3FB099;stroke-linecap:round;stroke-linejoin:round;strokeWidth:0.716760590672493px"></path><path d="M157,304.25a19.32,19.32,0,0,0-1.62,1.4l-1.9.51" style="fill:none;stroke:#3FB099;stroke-linecap:round;stroke-linejoin:round;strokeWidth:0.716760590672493px"></path><line x1="167.62" y1="308.88" x2="167.3" y2="308.11" style="fill:none;stroke:#3FB099;stroke-linecap:round;stroke-linejoin:round;strokeWidth:0.716760590672493px"></line><path d="M165.11,308.57c0,.11-.15.74-.26.75" style="fill:none;stroke:#3FB099;stroke-linecap:round;stroke-linejoin:round;strokeWidth:0.716760590672493px"></path><line x1="164.98" y1="307.8" x2="164.04" y2="308.44" style="fill:none;stroke:#3FB099;stroke-linecap:round;stroke-linejoin:round;strokeWidth:0.716760590672493px"></line><path d="M169.63,306.42l-1.55-1a9.51,9.51,0,0,0-2.16.94s-2.21,2.05-1.88,2l.56,1.39s2.66-.47,3.09-.51,2.12-2,2.12-2" style="fill:none;stroke:#3FB099;stroke-linecap:round;stroke-linejoin:round;strokeWidth:0.716760590672493px"></path><path d="M168.55,306.81a14.74,14.74,0,0,0-1.25,1.11l-1.48.41" style="fill:none;stroke:#3FB099;stroke-linecap:round;stroke-linejoin:round;strokeWidth:0.716760590672493px"></path><line x1="172.24" y1="315.37" x2="172.93" y2="315.99" style="fill:none;stroke:#3FB099;stroke-linecap:round;stroke-linejoin:round;strokeWidth:0.716760590672493px"></line><path d="M171.66,318.12c-.11,0-.83-.12-.87,0" style="fill:none;stroke:#3FB099;stroke-linecap:round;stroke-linejoin:round;strokeWidth:0.716760590672493px"></path><line x1="172.43" y1="318.53" x2="171.41" y2="319.29" style="fill:none;stroke:#3FB099;stroke-linecap:round;stroke-linejoin:round;strokeWidth:0.716760590672493px"></line><path d="M175.54,314.15s.39,1.72.45,2-1.76,1.93-1.76,1.93-2.94,1.59-2.82,1.24l-1.25-1.09s1.45-2.62,1.65-3.06,2.9-1.48,2.9-1.48" style="fill:none;stroke:#3FB099;stroke-linecap:round;stroke-linejoin:round;strokeWidth:0.716760590672493px"></path><path d="M174.75,315.14a15.94,15.94,0,0,1-1.62.92l-1,1.41" style="fill:none;stroke:#3FB099;stroke-linecap:round;stroke-linejoin:round;strokeWidth:0.716760590672493px"></path><line x1="180.98" y1="310.89" x2="182.19" y2="309.71" style="fill:none;stroke:#3FB099;stroke-linecap:round;stroke-linejoin:round;strokeWidth:0.716760590672493px"></line><path d="M186,312.28c-.09.2-.29,1.5-.08,1.59" style="fill:none;stroke:#3FB099;stroke-linecap:round;stroke-linejoin:round;strokeWidth:0.716760590672493px"></path><line x1="186.85" y1="310.94" x2="188.16" y2="312.88" style="fill:none;stroke:#3FB099;stroke-linecap:round;stroke-linejoin:round;strokeWidth:0.716760590672493px"></line><path d="M179,304.73s3.21-.48,3.68-.57,3.43,3.44,3.43,3.44,2.67,5.55,2,5.28L186,315s-4.73-2.95-5.53-3.37-2.48-5.46-2.48-5.46" style="fill:none;stroke:#3FB099;stroke-linecap:round;stroke-linejoin:round;strokeWidth:0.716760590672493px"></path><path d="M180.77,306.29a30.84,30.84,0,0,1,1.56,3.07l2.52,1.92" style="fill:none;stroke:#3FB099;stroke-linecap:round;stroke-linejoin:round;strokeWidth:0.716760590672493px"></path><path d="M167.36,292.88s2.53,2.94,3.18,3,4.67.75,4.67.75l.85-2c.5,0-2.84-3-2.84-3s-3-1.56-3.26-1.37-2.33,1.4-2.33,1.4l-.64.57Z" style="fill:#fff"></path><line x1="170.66" y1="295.24" x2="171.14" y2="294.11" style="fill:none;stroke:#3FB099;stroke-linecap:round;stroke-linejoin:round;strokeWidth:0.716760590672493px"></line><path d="M174.44,294.78c0,.16.22,1.1.39,1.1" style="fill:none;stroke:#3FB099;stroke-linecap:round;stroke-linejoin:round;strokeWidth:0.716760590672493px"></path><line x1="174.64" y1="293.65" x2="176.06" y2="294.6" style="fill:none;stroke:#3FB099;stroke-linecap:round;stroke-linejoin:round;strokeWidth:0.716760590672493px"></line><path d="M167.36,292.88s2.53,2.94,3.18,3,4.67.75,4.67.75l.85-2c.5,0-2.84-3-2.84-3s-3-1.56-3.26-1.37-2.33,1.4-2.33,1.4l-.64.57Z" style="fill:none;stroke:#3FB099;stroke-linecap:round;stroke-linejoin:round;strokeWidth:0.716760590672493px"></path><path d="M169.25,292.19a22.78,22.78,0,0,1,1.89,1.64l2.24.6" style="fill:none;stroke:#3FB099;stroke-linecap:round;stroke-linejoin:round;strokeWidth:0.716760590672493px"></path><path d="M116.06,327.74s-3.48,3.36-4.3,3.36-5.88.4-5.88.4l-.82-2.62c-.63-.05,3.86-3.41,3.86-3.41s3.86-1.61,4.21-1.34,2.73,2,2.73,2l.73.78Z" style="fill:#fff"></path><line x1="111.69" y1="330.29" x2="111.21" y2="328.83" style="fill:none;stroke:#3FB099;stroke-linecap:round;stroke-linejoin:round;strokeWidth:0.716760590672493px"></line><path d="M107,329.29c0,.2-.4,1.33-.61,1.32" style="fill:none;stroke:#3FB099;stroke-linecap:round;stroke-linejoin:round;strokeWidth:0.716760590672493px"></path><line x1="106.93" y1="327.86" x2="105.06" y2="328.88" style="fill:none;stroke:#3FB099;stroke-linecap:round;stroke-linejoin:round;strokeWidth:0.716760590672493px"></line><path d="M113.13,324.13c.34.27,2.73,2,2.73,2l.73.78-.53.82s-3.48,3.36-4.3,3.36-5.88.4-5.88.4l-.16-.5" style="fill:none;stroke:#3FB099;stroke-linecap:round;stroke-linejoin:round;strokeWidth:0.716760590672493px"></path><path d="M113.79,326.66a27.25,27.25,0,0,0-2.55,1.82l-2.84.49" style="fill:none;stroke:#3FB099;stroke-linecap:round;stroke-linejoin:round;strokeWidth:0.716760590672493px"></path><path d="M227.42,344.72s3.47,3.36,4.3,3.36,5.87.4,5.87.4l.83-2.62c.62-.05-3.86-3.41-3.86-3.41s-3.87-1.61-4.21-1.34-2.74,2-2.74,2l-.73.78Z" style="fill:#fff"></path><line x1="231.78" y1="347.27" x2="232.26" y2="345.81" style="fill:none;stroke:#3FB099;stroke-linecap:round;stroke-linejoin:round;strokeWidth:0.716760590672493px"></line><path d="M236.43,346.27c0,.2.4,1.34.61,1.32" style="fill:none;stroke:#3FB099;stroke-linecap:round;stroke-linejoin:round;strokeWidth:0.716760590672493px"></path><line x1="236.55" y1="344.84" x2="238.42" y2="345.86" style="fill:none;stroke:#3FB099;stroke-linecap:round;stroke-linejoin:round;strokeWidth:0.716760590672493px"></line><path d="M230.35,341.11c-.34.27-2.74,2-2.74,2l-.73.78.54.82s3.47,3.36,4.3,3.36,5.87.4,5.87.4l.16-.49" style="fill:none;stroke:#3FB099;stroke-linecap:round;stroke-linejoin:round;strokeWidth:0.716760590672493px"></path><path d="M229.69,343.64a28.32,28.32,0,0,1,2.54,1.83l2.84.48" style="fill:none;stroke:#3FB099;stroke-linecap:round;stroke-linejoin:round;strokeWidth:0.716760590672493px"></path><circle cx="157.47" cy="315.37" r="1.72" style="fill:#fff;stroke:#3FB099;stroke-linecap:round;stroke-linejoin:round;strokeWidth:0.716760590672493px"></circle><circle cx="158.38" cy="317.47" r="1.72" style="fill:#fff;stroke:#3FB099;stroke-linecap:round;stroke-linejoin:round;strokeWidth:0.716760590672493px"></circle><circle cx="159.8" cy="318.06" r="1.72" style="fill:#fff;stroke:#3FB099;stroke-linecap:round;stroke-linejoin:round;strokeWidth:0.716760590672493px"></circle><path d="M163.77,319.29a1.73,1.73,0,1,1-1.72-1.73A1.72,1.72,0,0,1,163.77,319.29Z" style="fill:#fff;stroke:#3FB099;stroke-linecap:round;stroke-linejoin:round;strokeWidth:0.716760590672493px"></path><circle cx="174.88" cy="325.13" r="1.72" style="fill:none;stroke:#3FB099;stroke-linecap:round;stroke-linejoin:round;strokeWidth:0.716760590672493px"></circle><circle cx="196.69" cy="319.78" r="1.72" style="fill:none;stroke:#3FB099;stroke-linecap:round;stroke-linejoin:round;strokeWidth:0.716760590672493px"></circle><circle cx="137.19" cy="343.72" r="2.4" style="fill:none;stroke:#3FB099;stroke-linecap:round;stroke-linejoin:round;strokeWidth:0.716760590672493px"></circle><circle cx="143.31" cy="315.2" r="1.72" style="fill:none;stroke:#3FB099;stroke-linecap:round;stroke-linejoin:round;strokeWidth:0.716760590672493px"></circle><path d="M215,336.26a7.21,7.21,0,0,1,3.9,2.8,6.8,6.8,0,0,0,1.05,1.38,14.21,14.21,0,0,0,2.45,1.18,4.23,4.23,0,0,1,1.28,5.6,6.37,6.37,0,0,1-5.34,3" style="fill:none;stroke:#3FB099;stroke-linecap:round;stroke-linejoin:round;strokeWidth:0.716760590672493px"></path><path d="M183.33,348.54a4.73,4.73,0,0,0,7.12-.66,13.6,13.6,0,0,0,11.42.86,3.35,3.35,0,0,0,2.15-3h0a7.33,7.33,0,0,0,9-1.31,3.61,3.61,0,0,0,3.28-3.86" style="fill:none;stroke:#3FB099;stroke-linecap:round;stroke-linejoin:round;strokeWidth:0.716760590672493px"></path><path d="M134.5,331.92c-.47,1.53.68,3.16,2.13,3.81a10,10,0,0,0,4.71.45,2.94,2.94,0,0,0,3.59,1.38" style="fill:none;stroke:#3FB099;stroke-linecap:round;stroke-linejoin:round;strokeWidth:0.716760590672493px"></path><path d="M107,335.31c-1.54,0-2.63,1.82-2.2,3.29a4.06,4.06,0,0,0,3.48,2.6,9.82,9.82,0,0,0,4.48-.83,20.73,20.73,0,0,1,4.36-1.41c.4,1.63,2.24,2.58,3.92,2.55a11.27,11.27,0,0,0,4.75-1.57,5,5,0,0,0,6.55,1.61" style="fill:none;stroke:#3FB099;stroke-linecap:round;stroke-linejoin:round;strokeWidth:0.716760590672493px"></path><path d="M103.38,344.6a4,4,0,0,0-.68,6.19c1.58,1.56,4.18,1.51,6.3.83a14,14,0,0,0,5.48-3.3,6.92,6.92,0,0,0,2.18-3.76,3.52,3.52,0,0,0-1.77-3.71" style="fill:none;stroke:#3FB099;stroke-linecap:round;stroke-linejoin:round;strokeWidth:0.716760590672493px"></path><path d="M114.13,349.44a15.45,15.45,0,0,0,8.11-1.4,11.11,11.11,0,0,0,3.35-2.32,3.23,3.23,0,0,0,.94-3.55" style="fill:none;stroke:#3FB099;stroke-linecap:round;stroke-linejoin:round;strokeWidth:0.716760590672493px"></path><path d="M112.85,351.17a.93.93,0,0,0,0,1.09,3.15,3.15,0,0,0,1.38,1.22,6,6,0,0,0,5.6,0" style="fill:none;stroke:#3FB099;stroke-linecap:round;stroke-linejoin:round;strokeWidth:0.716760590672493px"></path><path d="M104.3,352.78a1.84,1.84,0,0,0-.16,2.65,6.17,6.17,0,0,0,3,1.77c3.72.67,6.6-.17,10.65-2.26" style="fill:none;stroke:#3FB099;stroke-linecap:round;stroke-linejoin:round;strokeWidth:0.716760590672493px"></path><path d="M119.75,349.06l.28.24a1.73,1.73,0,0,0,0,2,3.35,3.35,0,0,0,1.8,1.15,13.15,13.15,0,0,0,5.27.14l-.62.06" style="fill:none;stroke:#3FB099;stroke-linecap:round;stroke-linejoin:round;strokeWidth:0.716760590672493px"></path><path d="M118.26,358.16c-.05.71.7,1.19,1.37,1.39a6.68,6.68,0,0,0,3.63.05" style="fill:none;stroke:#3FB099;stroke-linecap:round;stroke-linejoin:round;strokeWidth:0.716760590672493px"></path><path d="M119.25,356c.47,1.46,1.94,1.77,3.26,2a10.66,10.66,0,0,0,4.62-.4" style="fill:none;stroke:#3FB099;stroke-linecap:round;stroke-linejoin:round;strokeWidth:0.716760590672493px"></path><path d="M129.31,357.37c1.32.7,3.48,1,6.93.54A7.79,7.79,0,0,0,141,355.5a4.4,4.4,0,0,0,1.2-3.49,2.8,2.8,0,0,0-2.54-2.42" style="fill:none;stroke:#3FB099;stroke-linecap:round;stroke-linejoin:round;strokeWidth:0.716760590672493px"></path><path d="M127.54,355.32a3.17,3.17,0,0,0,.71,1.25" style="fill:none;stroke:#3FB099;stroke-linecap:round;stroke-linejoin:round;strokeWidth:0.716760590672493px"></path><path d="M131.92,349.83a9.39,9.39,0,0,0-4,2.57,3.35,3.35,0,0,0-.5,2.17" style="fill:none;stroke:#3FB099;stroke-linecap:round;stroke-linejoin:round;strokeWidth:0.716760590672493px"></path><path d="M141.29,349.26a3.11,3.11,0,0,1,1.86,3.88" style="fill:none;stroke:#3FB099;stroke-linecap:round;stroke-linejoin:round;strokeWidth:0.716760590672493px"></path><path d="M142.68,353.48a12.87,12.87,0,0,1,6.28,1.95,3.78,3.78,0,0,1,1.89,2.22,3,3,0,0,1-1.53,3,7.77,7.77,0,0,1-3.44.85,16.28,16.28,0,0,1-5.12-.24,7.16,7.16,0,0,1-4.25-2.71" style="fill:none;stroke:#3FB099;stroke-linecap:round;stroke-linejoin:round;strokeWidth:0.716760590672493px"></path><path d="M138.76,358.66c4.55,2.64,9,1.36,10.09.61" style="fill:none;stroke:#3FB099;stroke-linecap:round;stroke-linejoin:round;strokeWidth:0.716760590672493px"></path><path d="M135.05,358.94a2.77,2.77,0,0,0-1,4.49,4.54,4.54,0,0,0,2.24,1.12,12.31,12.31,0,0,0,5.91,0" style="fill:none;stroke:#3FB099;stroke-linecap:round;stroke-linejoin:round;strokeWidth:0.716760590672493px"></path><path d="M142,363.21a4.46,4.46,0,0,0,2.27,1.66,4.55,4.55,0,0,0,4-.29,3,3,0,0,0,1.19-3.57" style="fill:none;stroke:#3FB099;stroke-linecap:round;stroke-linejoin:round;strokeWidth:0.716760590672493px"></path><path d="M143.87,363.35a3.34,3.34,0,0,0,3.83.36" style="fill:none;stroke:#3FB099;stroke-linecap:round;stroke-linejoin:round;strokeWidth:0.716760590672493px"></path><path d="M134.56,361c-.4,1.37,1.11,2.39,3.21,2.75" style="fill:none;stroke:#3FB099;stroke-linecap:round;stroke-linejoin:round;strokeWidth:0.716760590672493px"></path><path d="M121.81,350.56c.72,1.09,3.8.79,6.11.47" style="fill:none;stroke:#3FB099;stroke-linecap:round;stroke-linejoin:round;strokeWidth:0.716760590672493px"></path><path d="M119.53,354.93a3,3,0,0,1,3-2.15l-.26,0" style="fill:none;stroke:#3FB099;stroke-linecap:round;stroke-linejoin:round;strokeWidth:0.716760590672493px"></path><path d="M120.6,355.08a1.1,1.1,0,0,0,.57,1.08,2.85,2.85,0,0,0,1.25.31,19.27,19.27,0,0,0,4.36-.11" style="fill:none;stroke:#3FB099;stroke-linecap:round;stroke-linejoin:round;strokeWidth:0.716760590672493px"></path><path d="M103.19,349.53a10.05,10.05,0,0,0,10.86-4.18" style="fill:none;stroke:#3FB099;stroke-linecap:round;stroke-linejoin:round;strokeWidth:0.716760590672493px"></path><path d="M105.29,354.38c.32.73,1.73,1.09,2.52,1.22a8.29,8.29,0,0,0,5.33-.44" style="fill:none;stroke:#3FB099;stroke-linecap:round;stroke-linejoin:round;strokeWidth:0.716760590672493px"></path><path d="M114.22,351.65c.57,1,2.68,1.51,4.08,1.05" style="fill:none;stroke:#3FB099;stroke-linecap:round;stroke-linejoin:round;strokeWidth:0.716760590672493px"></path><path d="M116.38,347.46c3.32.27,8-2.36,8.54-4.24" style="fill:none;stroke:#3FB099;stroke-linecap:round;stroke-linejoin:round;strokeWidth:0.716760590672493px"></path><path d="M147.57,353.79a4.33,4.33,0,0,1,.16-7.48,11.58,11.58,0,0,1,6.37-1.1,7.45,7.45,0,0,1,5.42,2.81,5.08,5.08,0,0,1,.16,5.88" style="fill:none;stroke:#3FB099;stroke-linecap:round;stroke-linejoin:round;strokeWidth:0.716760590672493px"></path><path d="M146.54,349.1c0,3.62,3.65,4.48,6.13,4.6s5.31-.17,6.83-3.23" style="fill:none;stroke:#3FB099;stroke-linecap:round;stroke-linejoin:round;strokeWidth:0.716760590672493px"></path><path d="M150.25,354.88a11.39,11.39,0,0,0,7.85,0" style="fill:none;stroke:#3FB099;stroke-linecap:round;stroke-linejoin:round;strokeWidth:0.716760590672493px"></path><path d="M158,355.71a1.94,1.94,0,0,1,1.1,2.67" style="fill:none;stroke:#3FB099;stroke-linecap:round;stroke-linejoin:round;strokeWidth:0.716760590672493px"></path><path d="M150.93,360c1.56.74,2.62.74,5.13.45" style="fill:none;stroke:#3FB099;stroke-linecap:round;stroke-linejoin:round;strokeWidth:0.716760590672493px"></path><path d="M152,359a5.63,5.63,0,0,0,5.6-.72" style="fill:none;stroke:#3FB099;stroke-linecap:round;stroke-linejoin:round;strokeWidth:0.716760590672493px"></path><path d="M161.23,357.51a6,6,0,0,0,4.2.61" style="fill:none;stroke:#3FB099;stroke-linecap:round;stroke-linejoin:round;strokeWidth:0.716760590672493px"></path><path d="M159.45,354.65a1.24,1.24,0,0,1,1.28-.76" style="fill:none;stroke:#3FB099;stroke-linecap:round;stroke-linejoin:round;strokeWidth:0.716760590672493px"></path><path d="M160.77,352.52a5.34,5.34,0,0,0,5.19,3.36" style="fill:none;stroke:#3FB099;stroke-linecap:round;stroke-linejoin:round;strokeWidth:0.716760590672493px"></path><path d="M167.41,356a10,10,0,0,0,5.47.2,5.57,5.57,0,0,0,3.88-3.62" style="fill:none;stroke:#3FB099;stroke-linecap:round;stroke-linejoin:round;strokeWidth:0.716760590672493px"></path><path d="M161.65,351.21a8.19,8.19,0,0,0,9.92.45,5.64,5.64,0,0,0,2.15-2.83,3.54,3.54,0,0,0-.66-3.39,5.1,5.1,0,0,0-3.83-1.25,17.29,17.29,0,0,0-4.63.63,6.49,6.49,0,0,0-2.93,1.52,2.92,2.92,0,0,0-.76,3.07" style="fill:none;stroke:#3FB099;stroke-linecap:round;stroke-linejoin:round;strokeWidth:0.716760590672493px"></path><path d="M128.17,353.34c.19,1.37,1.59,2.23,2.93,2.61a10.24,10.24,0,0,0,9.62-2.36" style="fill:none;stroke:#3FB099;stroke-linecap:round;stroke-linejoin:round;strokeWidth:0.716760590672493px"></path><path d="M167.73,355.1c2.57.7,6.66.47,8.37-3" style="fill:none;stroke:#3FB099;stroke-linecap:round;stroke-linejoin:round;strokeWidth:0.716760590672493px"></path><path d="M162.05,349.79a8.24,8.24,0,0,0,10.53-1.11" style="fill:none;stroke:#3FB099;stroke-linecap:round;stroke-linejoin:round;strokeWidth:0.716760590672493px"></path><path d="M174.58,349a2.33,2.33,0,0,1,2.43,2.25,2.45,2.45,0,0,1,1,4.69l.29,0" style="fill:none;stroke:#3FB099;stroke-linecap:round;stroke-linejoin:round;strokeWidth:0.716760590672493px"></path><path d="M215.68,330.77a3.56,3.56,0,0,1-1,2.85c-1.39,1.37-3.67,1.33-5.53.74a12.27,12.27,0,0,1-4.8-2.9,6.09,6.09,0,0,1-1.91-3.29,3.08,3.08,0,0,1,1.55-3.26" style="fill:none;stroke:#3FB099;stroke-linecap:round;stroke-linejoin:round;strokeWidth:0.716760590672493px"></path><path d="M204.64,332.44a13.36,13.36,0,0,1-7.11-1.23,9.46,9.46,0,0,1-2.94-2,2.84,2.84,0,0,1-.83-3.11" style="fill:none;stroke:#3FB099;stroke-linecap:round;stroke-linejoin:round;strokeWidth:0.716760590672493px"></path><path d="M205.76,334a.83.83,0,0,1,0,1,2.74,2.74,0,0,1-1.2,1.06,5.29,5.29,0,0,1-4.91,0" style="fill:none;stroke:#3FB099;stroke-linecap:round;stroke-linejoin:round;strokeWidth:0.716760590672493px"></path><path d="M213.25,335.37a1.6,1.6,0,0,1,.15,2.32,5.36,5.36,0,0,1-2.64,1.55c-3.26.59-5.8-.14-9.34-2" style="fill:none;stroke:#3FB099;stroke-linecap:round;stroke-linejoin:round;strokeWidth:0.716760590672493px"></path><path d="M199.71,332.11l-.25.21a1.49,1.49,0,0,1,0,1.77,2.93,2.93,0,0,1-1.57,1,11.62,11.62,0,0,1-4.63.12l.55.06" style="fill:none;stroke:#3FB099;stroke-linecap:round;stroke-linejoin:round;strokeWidth:0.716760590672493px"></path><path d="M202.64,339.55c0,.62-.62,1-1.21,1.22a5.79,5.79,0,0,1-3.17,0" style="fill:none;stroke:#3FB099;stroke-linecap:round;stroke-linejoin:round;strokeWidth:0.716760590672493px"></path><path d="M200.15,338.16c-.41,1.28-1.7,1.55-2.87,1.72a9.39,9.39,0,0,1-4.05-.35" style="fill:none;stroke:#3FB099;stroke-linecap:round;stroke-linejoin:round;strokeWidth:0.716760590672493px"></path><path d="M191.33,339.4c-1.16.61-3.06.9-6.08.47a6.9,6.9,0,0,1-4.15-2.11,3.88,3.88,0,0,1-1-3.07,2.46,2.46,0,0,1,2.23-2.12" style="fill:none;stroke:#3FB099;stroke-linecap:round;stroke-linejoin:round;strokeWidth:0.716760590672493px"></path><path d="M189,332.78a8.34,8.34,0,0,1,3.52,2.25,3,3,0,0,1,.44,1.91" style="fill:none;stroke:#3FB099;stroke-linecap:round;stroke-linejoin:round;strokeWidth:0.716760590672493px"></path><path d="M180.83,332.28a2.72,2.72,0,0,0-1.63,3.41" style="fill:none;stroke:#3FB099;stroke-linecap:round;stroke-linejoin:round;strokeWidth:0.716760590672493px"></path><path d="M179.61,336a11.32,11.32,0,0,0-5.51,1.71,3.34,3.34,0,0,0-1.66,1.95,2.59,2.59,0,0,0,1.35,2.61,6.74,6.74,0,0,0,3,.75,14.08,14.08,0,0,0,4.49-.21,6.31,6.31,0,0,0,3.72-2.38" style="fill:none;stroke:#3FB099;stroke-linecap:round;stroke-linejoin:round;strokeWidth:0.716760590672493px"></path><path d="M183,340.53c-4,2.31-7.89,1.19-8.84.53" style="fill:none;stroke:#3FB099;stroke-linecap:round;stroke-linejoin:round;strokeWidth:0.716760590672493px"></path><path d="M186.3,340.77a2.5,2.5,0,0,1,1.47,1.74,2.46,2.46,0,0,1-.62,2.2,4.09,4.09,0,0,1-2,1,10.81,10.81,0,0,1-5.18,0" style="fill:none;stroke:#3FB099;stroke-linecap:round;stroke-linejoin:round;strokeWidth:0.716760590672493px"></path><path d="M180.23,344.52a3.86,3.86,0,0,1-2,1.45,4,4,0,0,1-3.47-.25,2.6,2.6,0,0,1-1.05-3.13" style="fill:none;stroke:#3FB099;stroke-linecap:round;stroke-linejoin:round;strokeWidth:0.716760590672493px"></path><path d="M198.12,333.48a7.51,7.51,0,0,1-3.81.47" style="fill:none;stroke:#3FB099;stroke-linecap:round;stroke-linejoin:round;strokeWidth:0.716760590672493px"></path><path d="M199.9,337.26a2.65,2.65,0,0,0-2.63-1.89l.23,0" style="fill:none;stroke:#3FB099;stroke-linecap:round;stroke-linejoin:round;strokeWidth:0.716760590672493px"></path><path d="M198.37,337.41a.76.76,0,0,1-.4.75,2,2,0,0,1-.87.22,13.52,13.52,0,0,1-3-.08" style="fill:none;stroke:#3FB099;stroke-linecap:round;stroke-linejoin:round;strokeWidth:0.716760590672493px"></path><path d="M214.22,332.52a8.81,8.81,0,0,1-9.52-3.66" style="fill:none;stroke:#3FB099;stroke-linecap:round;stroke-linejoin:round;strokeWidth:0.716760590672493px"></path><path d="M212.39,336.78c-.29.63-1.53,1-2.21,1.06a7.33,7.33,0,0,1-4.68-.38" style="fill:none;stroke:#3FB099;stroke-linecap:round;stroke-linejoin:round;strokeWidth:0.716760590672493px"></path><path d="M204.56,334.38c-.51.9-2.35,1.33-3.58.92" style="fill:none;stroke:#3FB099;stroke-linecap:round;stroke-linejoin:round;strokeWidth:0.716760590672493px"></path><path d="M202.66,330.7c-2.91.24-7-2.06-7.49-3.71" style="fill:none;stroke:#3FB099;stroke-linecap:round;stroke-linejoin:round;strokeWidth:0.716760590672493px"></path><path d="M175.32,336.26a3.81,3.81,0,0,0-.14-6.57,10.18,10.18,0,0,0-5.59-.95,6.5,6.5,0,0,0-4.75,2.46,4.47,4.47,0,0,0-.14,5.16" style="fill:none;stroke:#3FB099;stroke-linecap:round;stroke-linejoin:round;strokeWidth:0.716760590672493px"></path><path d="M176.22,332.15c0,3.17-3.2,3.93-5.37,4s-4.66-.15-6-2.84" style="fill:none;stroke:#3FB099;stroke-linecap:round;stroke-linejoin:round;strokeWidth:0.716760590672493px"></path><path d="M173,337.21a10,10,0,0,1-6.88,0" style="fill:none;stroke:#3FB099;stroke-linecap:round;stroke-linejoin:round;strokeWidth:0.716760590672493px"></path><path d="M166.14,337.94a1.69,1.69,0,0,0-1,2.34" style="fill:none;stroke:#3FB099;stroke-linecap:round;stroke-linejoin:round;strokeWidth:0.716760590672493px"></path><path d="M172.38,341.71c-1.37.65-2.31.65-4.51.39" style="fill:none;stroke:#3FB099;stroke-linecap:round;stroke-linejoin:round;strokeWidth:0.716760590672493px"></path><path d="M170.7,340.79a5,5,0,0,1-4.86-1" style="fill:none;stroke:#3FB099;stroke-linecap:round;stroke-linejoin:round;strokeWidth:0.716760590672493px"></path><path d="M164.18,338.39a8,8,0,0,1-4.26.94" style="fill:none;stroke:#3FB099;stroke-linecap:round;stroke-linejoin:round;strokeWidth:0.716760590672493px"></path><path d="M163.74,335.15a4.69,4.69,0,0,1-4.55,2.94" style="fill:none;stroke:#3FB099;stroke-linecap:round;stroke-linejoin:round;strokeWidth:0.716760590672493px"></path><path d="M158.26,337.14a8.52,8.52,0,0,1-4.53.91,4.72,4.72,0,0,1-3.72-2.49" style="fill:none;stroke:#3FB099;stroke-linecap:round;stroke-linejoin:round;strokeWidth:0.716760590672493px"></path><path d="M122.59,321.25a2.54,2.54,0,0,0,1.82,2.17,7.32,7.32,0,0,0,3,.2,2.92,2.92,0,0,0-1.34,3.68,4.74,4.74,0,0,0,3.24,2.62,13.2,13.2,0,0,0,4.3.22" style="fill:none;stroke:#3FB099;stroke-linecap:round;stroke-linejoin:round;strokeWidth:0.716760590672493px"></path><path d="M163,334a7.16,7.16,0,0,1-8.69.4,4.94,4.94,0,0,1-1.89-2.48,3.09,3.09,0,0,1,.58-3,4.43,4.43,0,0,1,3.36-1.1,14.93,14.93,0,0,1,4,.55,5.71,5.71,0,0,1,2.58,1.34,2.54,2.54,0,0,1,.66,2.68" style="fill:none;stroke:#3FB099;stroke-linecap:round;stroke-linejoin:round;strokeWidth:0.716760590672493px"></path><path d="M191.37,336.14c-.13,1-1.14,1.61-2.1,1.88a7.36,7.36,0,0,1-6.93-1.7" style="fill:none;stroke:#3FB099;stroke-linecap:round;stroke-linejoin:round;strokeWidth:0.716760590672493px"></path><path d="M162.62,332.75a7.19,7.19,0,0,1-9.23-1" style="fill:none;stroke:#3FB099;stroke-linecap:round;stroke-linejoin:round;strokeWidth:0.716760590672493px"></path><path d="M151.64,332.09a2,2,0,0,0-2.13,2,2.14,2.14,0,0,0-.83,4.11l-.26,0" style="fill:none;stroke:#3FB099;stroke-linecap:round;stroke-linejoin:round;strokeWidth:0.716760590672493px"></path><path d="M102.23,298.47c2.85-1.32,5.6-.47,7,2.36,1.94,4,1.94,4,3.31,9.94.14-10.58,3.68-15.1,10.3-18.4-9,2.65-10.66-7.68-10.66-7.68s-1.67,6.59-3.28,8.33A30.32,30.32,0,0,1,102.23,298.47Z" style="fill:#fff"></path><path d="M183.62,287a3.19,3.19,0,0,1,4.49,1.51c1.25,2.55,1.25,2.55,2.13,6.39.09-6.79,2.36-9.7,6.61-11.82-5.81,1.71-6.85-4.92-6.85-4.92s-1.07,4.22-2.1,5.34A19.46,19.46,0,0,1,183.62,287Z" style="fill:#fff"></path><path d="M86.06,367.41a2.85,2.85,0,0,1,4,1.37A17.55,17.55,0,0,1,92,374.52c.08-6.11,2.12-8.72,5.95-10.63-5.23,1.53-6.16-4.44-6.16-4.44s-1,3.81-1.89,4.82A17.88,17.88,0,0,1,86.06,367.41Z" style="fill:#fff"></path><path d="M236,358.63a2.63,2.63,0,0,1,3.7,1.25,16.53,16.53,0,0,1,1.76,5.28c.08-5.61,2-8,5.47-9.76-4.8,1.4-5.66-4.08-5.66-4.08s-.88,3.5-1.74,4.42A16.06,16.06,0,0,1,236,358.63Z" style="fill:#fff"></path><path d="M159,392.91a4.6,4.6,0,0,1,6.49,2.19c1.81,3.69,1.81,3.69,3.08,9.25.13-9.84,3.42-14,9.58-17.11-8.41,2.47-9.91-7.14-9.91-7.14s-1.55,6.13-3.05,7.75A28.1,28.1,0,0,1,159,392.91Z" style="fill:#fff"></path><path d="M146.77,275.33c3-1.37,5.82-.49,7.26,2.45,2,4.12,2,4.12,3.44,10.33.15-11,3.82-15.69,10.7-19.12-9.39,2.76-11.08-8-11.08-8s-1.73,6.85-3.4,8.66A31.63,31.63,0,0,1,146.77,275.33Z" style="fill:#fff"></path><line x1="241.38" y1="235.93" x2="226.54" y2="247.82" style="fill:#fff;stroke:#263238;stroke-linecap:round;stroke-linejoin:round"></line><line x1="247.49" y1="231.03" x2="243.45" y2="234.27" style="fill:#fff;stroke:#263238;stroke-linecap:round;stroke-linejoin:round"></line><line x1="224.21" y1="226.36" x2="212.48" y2="239.08" style="fill:#fff;stroke:#263238;stroke-linecap:round;stroke-linejoin:round"></line><line x1="215.09" y1="204.16" x2="198.43" y2="230.35" style="fill:#fff;stroke:#263238;stroke-linecap:round;stroke-linejoin:round"></line><line x1="189.19" y1="209.33" x2="184.37" y2="221.62" style="fill:#fff;stroke:#263238;stroke-linecap:round;stroke-linejoin:round"></line><line x1="191.66" y1="203" x2="190.05" y2="207.11" style="fill:#fff;stroke:#263238;stroke-linecap:round;stroke-linejoin:round"></line><line x1="173.47" y1="196.1" x2="170.32" y2="212.89" style="fill:#fff;stroke:#263238;stroke-linecap:round;stroke-linejoin:round"></line><line x1="174.14" y1="192.58" x2="173.47" y2="196.1" style="fill:#fff;stroke:#263238;stroke-linecap:round;stroke-linejoin:round"></line><line x1="156.52" y1="179.21" x2="156.26" y2="204.16" style="fill:#fff;stroke:#263238;stroke-linecap:round;stroke-linejoin:round"></line><line x1="156.61" y1="170.65" x2="156.56" y2="175.32" style="fill:#fff;stroke:#263238;stroke-linecap:round;stroke-linejoin:round"></line><line x1="58.07" y1="272.35" x2="67.59" y2="275.54" style="fill:#fff;stroke:#263238;stroke-linecap:round;stroke-linejoin:round"></line><line x1="53.46" y1="270.81" x2="55.81" y2="271.6" style="fill:#fff;stroke:#263238;stroke-linecap:round;stroke-linejoin:round"></line><line x1="39.7" y1="266.2" x2="48.81" y2="269.26" style="fill:#fff;stroke:#263238;stroke-linecap:round;stroke-linejoin:round"></line><line x1="67.6" y1="256.72" x2="77.12" y2="262.41" style="fill:#fff;stroke:#263238;stroke-linecap:round;stroke-linejoin:round"></line><line x1="58.07" y1="251.03" x2="64.6" y2="254.93" style="fill:#fff;stroke:#263238;stroke-linecap:round;stroke-linejoin:round"></line><line x1="74.97" y1="232.72" x2="91.13" y2="246.49" style="fill:#fff;stroke:#263238;stroke-linecap:round;stroke-linejoin:round"></line><line x1="66.34" y1="225.37" x2="71.31" y2="229.6" style="fill:#fff;stroke:#263238;stroke-linecap:round;stroke-linejoin:round"></line><line x1="94.6" y1="218.59" x2="106.54" y2="233.62" style="fill:#fff;stroke:#263238;stroke-linecap:round;stroke-linejoin:round"></line><line x1="122.28" y1="219.66" x2="123.82" y2="222.75" style="fill:#fff;stroke:#263238;stroke-linecap:round;stroke-linejoin:round"></line><line x1="110.57" y1="196.1" x2="119.71" y2="214.49" style="fill:#fff;stroke:#263238;stroke-linecap:round;stroke-linejoin:round"></line><line x1="133.55" y1="190.47" x2="138.37" y2="209.15" style="fill:#fff;stroke:#263238;stroke-linecap:round;stroke-linejoin:round"></line></g><g id="freepik--Clouds--inject-8"><path d="M168.76,140.83a7.4,7.4,0,0,1-2.88-3.85c-.93-4.28-.84-4.39-1.56-8.69-1.4-8.36-11.52-16.44-23.27-10.16,2.22-3.21-1.9-10.16-7.1-10.1a8.52,8.52,0,0,0-7.55,4s-6.43-9.54-19.69-4.53c-6.22,2.36-8.84,7.42-8.5,13.47a8.39,8.39,0,0,0-9.93.92,6.41,6.41,0,0,0,0,9,8.63,8.63,0,0,0-10.7.92,6.64,6.64,0,0,0,.2,9Z" style="fill:none;stroke:#263238;stroke-linecap:round;stroke-linejoin:round"></path><path d="M102.7,118a9.33,9.33,0,0,0-.17,2.41" style="fill:none;stroke:#263238;stroke-linecap:round;stroke-linejoin:round"></path><path d="M118.45,110.1a13,13,0,0,0-11.79,1.69,10.5,10.5,0,0,0-3.43,4.47" style="fill:none;stroke:#263238;stroke-linecap:round;stroke-linejoin:round"></path><path d="M400,110.35c-3.52-1.7-8.7-5.51-12.31-14-1.67-3.91-6.46-6.82-10.44-5.3-6.32-13.78-18.49-5.2-18.49-5.2a20.78,20.78,0,0,0-38.43,13.79,1.48,1.48,0,1,0-2.51,1.47c-7-2.25-15.18,2.37-17.42,9.22Z" style="fill:none;stroke:#263238;stroke-linecap:round;stroke-linejoin:round"></path><path d="M339,81.16a13.6,13.6,0,0,1,2.85.09" style="fill:none;stroke:#263238;stroke-linecap:round;stroke-linejoin:round"></path><path d="M325.87,95.16a13.89,13.89,0,0,1,11.2-13.73" style="fill:none;stroke:#263238;stroke-linecap:round;stroke-linejoin:round"></path><path d="M326.74,100.08A13.18,13.18,0,0,1,326,97" style="fill:none;stroke:#263238;stroke-linecap:round;stroke-linejoin:round"></path></g></svg>